<svg version="1.1" id="Layer_1" xmlns="http://www.w3.org/2000/svg" xmlns:xlink="http://www.w3.org/1999/xlink" x="0px" y="0px"
	 width="100%" viewBox="0 0 1920 1920" enable-background="new 0 0 1920 1920" xml:space="preserve">
<path fill="#FFFFFF" opacity="1.000000" stroke="none" 
	d="
M882.000000,1921.000000 
	C588.000000,1921.000000 294.500000,1921.000000 1.000000,1921.000000 
	C1.000000,1281.000000 1.000000,641.000000 1.000000,1.000000 
	C641.000000,1.000000 1281.000000,1.000000 1921.000000,1.000000 
	C1921.000000,641.000000 1921.000000,1281.000000 1921.000000,1921.000000 
	C1574.833374,1921.000000 1228.666626,1921.000000 882.000000,1921.000000 
M743.599304,583.565430 
	C743.203674,582.710571 742.807983,581.855713 742.087952,580.233337 
	C742.050598,579.129333 742.013245,578.025330 742.497253,576.513367 
	C741.902222,575.062866 741.307251,573.612427 740.712280,572.161926 
	C740.165955,572.763245 739.619629,573.364624 738.775085,574.581482 
	C733.046265,580.106812 727.349792,585.666199 721.571472,591.139221 
	C719.480469,593.119751 718.835449,594.848938 719.743896,598.016907 
	C721.274902,603.355896 723.107239,609.362000 716.009766,612.749207 
	C714.490662,611.476318 712.980652,610.192444 711.451172,608.932068 
	C677.785217,581.189148 639.549561,572.105652 597.132690,581.779602 
	C569.524658,588.076050 546.505554,602.380127 528.354614,624.242432 
	C522.142151,631.725159 516.348633,639.554810 512.282532,648.435913 
	C504.791382,664.797974 499.431763,681.712341 499.048706,699.966553 
	C498.730774,715.118591 499.374298,730.117859 504.129425,744.646729 
	C508.543854,758.134460 514.717224,770.616760 522.761963,782.499207 
	C529.594421,792.591125 537.620056,801.559875 546.984192,808.559937 
	C556.973816,816.027588 567.367493,823.483521 579.817627,827.409790 
	C593.235291,831.641235 606.546326,835.545837 620.740295,835.928345 
	C637.387817,836.376953 653.692078,834.826538 669.473816,829.165466 
	C694.589722,820.156250 715.743286,805.566589 731.418701,783.859070 
	C754.628845,751.717407 762.275879,716.101807 753.388916,677.285156 
	C748.338806,655.227539 737.616028,636.060730 722.813843,618.630371 
	C724.954651,617.231628 727.071960,614.717163 729.241211,614.671509 
	C733.465515,614.582581 737.718933,615.877014 740.918030,616.421143 
	C747.427795,610.197266 753.539551,604.439636 759.523926,598.552368 
	C760.588013,597.505615 761.122925,595.920959 761.934875,594.048950 
	C760.655090,594.017822 759.375305,593.986694 757.308411,594.017090 
	C756.537109,593.875488 755.765869,593.733887 754.890625,593.023987 
	C753.958069,592.991943 753.025574,592.959900 751.263245,592.956726 
	C750.184143,592.748535 749.104980,592.540344 747.773499,591.778015 
	C746.589783,591.528931 745.406067,591.279907 743.732178,590.392517 
	C743.530518,588.225708 743.328857,586.058838 743.599304,583.565430 
M1506.010620,765.050842 
	C1506.010620,704.471802 1506.010620,643.892822 1506.010620,583.301392 
	C1482.958862,583.301392 1460.397705,583.301392 1438.009766,583.301392 
	C1438.009766,663.977539 1438.009766,744.351929 1438.009766,824.669312 
	C1499.499023,824.669312 1560.696167,824.669312 1621.716064,824.669312 
	C1621.716064,805.261292 1621.716064,786.185059 1621.716064,766.928345 
	C1619.599365,766.928345 1617.782715,766.930176 1615.966064,766.928040 
	C1579.653076,766.886292 1543.340210,766.844116 1506.829834,766.438538 
	C1506.635986,766.235840 1506.409058,766.081665 1506.010620,765.050842 
M991.881531,1040.446777 
	C991.747253,1040.177856 991.531860,1040.019043 991.113831,1039.043945 
	C991.113831,1027.963257 991.113831,1016.882507 991.113831,1005.444031 
	C1032.439087,1005.444031 1073.051758,1005.444031 1113.775146,1005.444031 
	C1113.775146,985.820435 1113.775146,966.570740 1113.775146,947.202942 
	C1049.481812,947.202942 985.414673,947.202942 920.954102,947.202942 
	C920.954102,978.498718 920.954102,1009.572937 920.954102,1040.776855 
	C891.490173,1040.776855 862.420227,1040.776855 832.952026,1040.776855 
	C832.952026,1009.485413 832.952026,978.413147 832.952026,947.224365 
	C809.482178,947.224365 786.411438,947.224365 763.221069,947.224365 
	C763.221069,1029.517334 763.221069,1111.584717 763.221069,1193.777222 
	C786.514526,1193.777222 809.585266,1193.777222 833.106812,1193.777222 
	C833.106812,1162.647705 833.106812,1131.738770 833.106812,1100.981445 
	C862.622986,1100.981445 891.686768,1100.981445 921.241516,1100.981445 
	C921.241516,1132.176392 921.241516,1163.062012 921.241516,1193.759399 
	C987.342896,1193.759399 1052.949951,1193.759399 1118.664307,1193.759399 
	C1118.664307,1174.119751 1118.664307,1154.722656 1118.664307,1134.998901 
	C1116.607788,1134.998901 1114.805542,1135.000977 1113.003296,1134.998535 
	C1072.677368,1134.944580 1032.351318,1134.890015 991.881531,1134.446777 
	C991.747253,1134.177856 991.531860,1134.019043 991.113831,1133.043945 
	C991.113831,1121.418701 991.113831,1109.793457 991.113831,1097.611572 
	C1029.903320,1097.611572 1068.281494,1097.611572 1106.655396,1097.611572 
	C1106.655396,1078.467651 1106.655396,1059.886597 1106.655396,1040.998901 
	C1104.587280,1040.998901 1102.783081,1041.001099 1100.978760,1040.998413 
	C1064.661011,1040.944458 1028.343140,1040.889893 991.881531,1040.446777 
M1158.999146,1071.500000 
	C1158.999146,1112.257568 1158.999146,1153.015259 1158.999146,1193.719849 
	C1182.632690,1193.719849 1205.702515,1193.719849 1229.166260,1193.719849 
	C1229.166260,1167.036499 1229.166260,1140.631958 1229.166260,1114.001343 
	C1236.536621,1114.001343 1243.515869,1113.882446 1250.483765,1114.108643 
	C1251.773193,1114.150391 1253.394043,1115.305908 1254.222534,1116.421875 
	C1260.518188,1124.901978 1266.639771,1133.511108 1272.844116,1142.059326 
	C1283.989502,1157.415405 1295.402954,1172.586060 1306.151489,1188.214355 
	C1309.150391,1192.574463 1311.974731,1194.204102 1317.216675,1194.135254 
	C1340.690918,1193.826294 1364.171509,1194.000854 1388.626953,1194.000854 
	C1387.718994,1191.586548 1387.415161,1189.441406 1386.269653,1187.937378 
	C1373.826538,1171.599121 1361.252197,1155.360718 1348.712402,1139.096191 
	C1340.400391,1128.315186 1332.085938,1117.536011 1323.661377,1106.611694 
	C1327.194946,1104.849854 1330.380493,1103.410889 1333.424072,1101.717285 
	C1344.273193,1095.680298 1354.477051,1088.838135 1361.939697,1078.595337 
	C1376.494629,1058.618042 1378.759521,1036.064819 1373.618408,1012.987183 
	C1365.173584,975.079224 1333.807495,950.583618 1290.850098,947.996826 
	C1290.354492,947.966980 1289.858521,947.941284 1289.363647,947.902222 
	C1285.565674,947.602783 1281.768677,947.045044 1277.970337,947.038635 
	C1239.643433,946.973816 1201.316528,946.996582 1162.989502,947.009705 
	C1161.720703,947.010193 1160.451904,947.168884 1158.999146,947.266113 
	C1158.999146,988.555298 1158.999146,1029.527710 1158.999146,1071.500000 
M1501.503174,1005.567017 
	C1538.265137,1005.567017 1575.026978,1005.567017 1611.715820,1005.567017 
	C1611.715820,985.698181 1611.715820,966.446960 1611.715820,947.249817 
	C1547.371338,947.249817 1483.312988,947.249817 1419.241455,947.249817 
	C1419.241455,1029.579224 1419.241455,1111.636597 1419.241455,1193.721191 
	C1485.200073,1193.721191 1550.915405,1193.721191 1616.632080,1193.721191 
	C1616.632080,1174.045044 1616.632080,1154.650391 1616.632080,1134.819580 
	C1573.619873,1134.819580 1530.896362,1134.819580 1488.208252,1134.819580 
	C1488.208252,1122.269043 1488.208252,1110.158813 1488.208252,1097.581055 
	C1527.135132,1097.581055 1565.858154,1097.581055 1604.689331,1097.581055 
	C1604.689331,1078.532471 1604.689331,1059.954712 1604.689331,1040.936523 
	C1565.735352,1040.936523 1527.011597,1040.936523 1488.264160,1040.936523 
	C1488.264160,1028.904907 1488.264160,1017.316711 1488.264160,1005.566956 
	C1492.518677,1005.566956 1496.511230,1005.566956 1501.503174,1005.567017 
M626.492371,946.999390 
	C588.408630,946.999390 550.324951,946.999390 512.241638,946.999390 
	C512.241638,1029.596558 512.241638,1111.644287 512.241638,1193.764648 
	C535.549744,1193.764648 558.614929,1193.764648 582.070435,1193.764648 
	C582.070435,1171.464111 582.070435,1149.395874 582.070435,1127.000488 
	C598.249512,1127.000488 614.040161,1127.123657 629.828003,1126.965210 
	C644.928833,1126.813721 659.871887,1125.295044 674.133301,1119.883911 
	C688.633545,1114.382080 701.640442,1106.565674 711.564575,1094.365723 
	C720.750427,1083.073364 726.763489,1070.212524 728.931030,1055.810181 
	C731.028931,1041.870483 732.125366,1028.095093 728.234741,1013.944336 
	C722.289978,992.322327 711.013733,975.050354 692.171631,962.835693 
	C687.193542,959.608582 682.392029,955.885437 676.997803,953.594727 
	C672.702942,951.770752 667.652039,951.593994 662.896729,951.014038 
	C651.106018,949.575806 639.292358,948.325256 626.492371,946.999390 
M1400.420044,785.993530 
	C1393.983521,771.549744 1387.567871,757.096619 1381.106934,742.663757 
	C1357.312256,689.508972 1333.502686,636.360840 1309.603760,582.998535 
	C1288.188477,582.998535 1266.703979,583.187561 1245.227661,582.854919 
	C1240.354492,582.779419 1238.603760,585.105530 1237.152954,588.830994 
	C1235.236816,593.751160 1233.328125,598.679688 1231.211304,603.514954 
	C1227.586426,611.795166 1223.809937,620.009216 1220.082764,628.244568 
	C1216.386963,636.410828 1212.717407,644.589355 1208.955811,652.725220 
	C1205.075928,661.116638 1201.028320,669.430847 1197.184937,677.838623 
	C1193.484619,685.933655 1189.922852,694.092468 1186.353638,702.246643 
	C1182.581421,710.864563 1178.916382,719.529541 1175.122925,728.138062 
	C1171.505737,736.346680 1167.813965,744.522949 1164.098511,752.687561 
	C1160.482666,760.633240 1156.722778,768.513855 1153.158691,776.482422 
	C1149.429688,784.820068 1145.945435,793.267639 1142.193359,801.594604 
	C1138.694336,809.359985 1134.984131,817.030212 1131.354370,824.769043 
	C1155.986206,824.769043 1180.277100,824.769043 1204.496094,824.769043 
	C1209.401245,812.246826 1214.131104,799.913757 1219.164429,787.705811 
	C1219.692139,786.425964 1222.009766,785.120483 1223.502441,785.114014 
	C1257.152100,784.967712 1290.802979,785.076904 1324.452271,784.886475 
	C1327.858643,784.867188 1329.233276,786.553650 1330.184204,788.930237 
	C1334.505371,799.731262 1338.548584,810.644592 1342.966675,821.404602 
	C1343.589844,822.922363 1345.719238,824.835938 1347.167236,824.849243 
	C1370.597412,825.064209 1394.030151,825.001221 1417.941040,825.001221 
	C1412.145874,811.929626 1406.528931,799.259949 1400.420044,785.993530 
M415.421967,1194.968628 
	C433.004547,1189.780029 448.748657,1181.596680 461.573212,1168.074341 
	C469.354218,1159.870117 473.707764,1149.745483 477.690338,1139.686890 
	C479.919739,1134.056030 479.003296,1127.046997 478.918732,1120.666748 
	C478.817657,1113.041748 479.446564,1105.308838 476.051910,1097.992310 
	C473.878204,1093.307495 473.294220,1087.666016 470.407257,1083.575806 
	C463.975586,1074.463745 456.321136,1066.393921 446.886780,1060.021118 
	C419.658295,1041.628540 387.661041,1040.677246 356.934509,1035.379517 
	C349.990845,1034.182373 346.051056,1029.299316 340.373627,1026.825562 
	C340.247437,1026.770508 340.191223,1026.554565 340.102692,1026.413452 
	C335.788605,1019.533325 337.634186,1009.783386 344.379303,1005.124878 
	C351.266113,1000.368530 359.124237,998.581787 367.365997,998.988464 
	C375.798401,999.404419 384.276703,999.853271 392.604218,1001.135986 
	C399.589447,1002.211914 406.575806,1003.992188 413.209473,1006.422180 
	C418.938232,1008.520691 424.171204,1011.972717 429.771759,1014.904114 
	C441.031158,1000.466064 452.327759,985.980408 463.683380,971.419006 
	C453.409119,963.139038 442.129517,956.671021 429.856171,952.006287 
	C406.730804,943.216919 382.827667,940.984009 358.236206,942.874695 
	C337.203949,944.491638 317.261932,949.090454 299.093414,960.153198 
	C281.507782,970.861084 270.596100,986.652222 268.467804,1006.781555 
	C267.366272,1017.199646 266.808380,1028.107788 270.034332,1039.094238 
	C274.954315,1055.849854 284.152588,1068.487549 298.355194,1078.093018 
	C314.939972,1089.309814 334.441772,1091.494507 353.184509,1095.832520 
	C361.717438,1097.807373 370.654663,1098.659058 379.427094,1098.791626 
	C387.467163,1098.913208 394.070496,1102.096924 400.592041,1105.856567 
	C406.302795,1109.148804 410.730804,1113.423828 410.007599,1121.027954 
	C409.142914,1130.119751 402.275909,1133.657959 395.467560,1137.023804 
	C382.710449,1143.330444 368.980438,1140.806152 355.602264,1140.452271 
	C350.208313,1140.309570 344.815582,1138.519287 339.504395,1137.158447 
	C324.960297,1133.432007 312.557373,1125.791992 301.274109,1116.069214 
	C300.224304,1115.164673 297.250366,1114.677490 296.649353,1115.339600 
	C287.523132,1125.394287 278.635223,1135.665405 269.711914,1145.903809 
	C266.391449,1149.713501 263.123444,1153.569092 259.513062,1157.774780 
	C264.862030,1162.768921 269.738037,1167.945801 275.245819,1172.328491 
	C285.360443,1180.376953 296.219025,1187.159790 308.416779,1191.937378 
	C322.194489,1197.333984 336.458252,1200.117310 351.024475,1200.819702 
	C362.718750,1201.383545 374.537384,1200.864136 386.213745,1199.836426 
	C395.736389,1198.998291 405.130280,1196.697266 415.421967,1194.968628 
M459.935181,708.619141 
	C454.212677,703.565735 448.870270,697.981445 442.695068,693.560364 
	C425.505493,681.253418 404.800568,678.320679 385.000671,673.212891 
	C379.312256,671.745544 373.010742,672.820557 367.157501,671.785034 
	C359.576355,670.443787 351.685730,669.199158 344.783417,666.043030 
	C333.087494,660.695007 332.409485,645.339783 343.669250,639.355347 
	C349.797119,636.098511 357.351257,635.333252 364.369904,634.020813 
	C368.227570,633.299438 372.327850,633.499939 376.284851,633.774109 
	C382.073151,634.175171 388.112000,634.130371 393.543121,635.854004 
	C404.738068,639.407104 415.601685,644.004150 427.304504,648.438049 
	C437.548126,635.312378 448.650848,621.085999 459.798187,606.802368 
	C447.064148,596.877502 433.643921,589.398438 418.641113,585.036987 
	C397.858215,578.995117 376.739288,576.969482 355.072906,578.859131 
	C335.231873,580.589417 316.269287,584.723450 299.107300,595.128723 
	C278.744659,607.474548 268.248169,625.732666 266.916077,649.517578 
	C266.466522,657.544434 267.467133,665.383118 269.208160,673.050232 
	C270.522156,678.836792 272.754913,684.626343 275.681610,689.789368 
	C281.142731,699.423218 288.290405,707.755737 298.760681,712.366943 
	C307.913055,716.397827 316.998810,720.750671 326.489624,723.787354 
	C333.802399,726.127075 341.686218,726.718262 349.337830,727.952271 
	C356.197693,729.058533 363.064667,730.589478 369.968750,730.844727 
	C380.803955,731.245056 391.011780,733.593262 399.984283,739.528809 
	C409.284973,745.681580 409.749725,757.619568 400.983276,764.527527 
	C397.145386,767.551758 392.316010,769.775635 387.583923,771.125000 
	C370.538269,775.985535 353.509857,774.010315 336.766113,769.386902 
	C322.931763,765.566833 310.901154,758.232666 300.176849,748.750244 
	C297.629425,746.497803 295.561859,745.609009 293.778564,749.665161 
	C292.948395,751.553345 291.384735,753.162048 289.986755,754.750671 
	C280.421967,765.619751 270.757629,776.402405 261.326965,787.385925 
	C260.603271,788.228882 260.814484,790.995850 261.642151,791.849243 
	C264.721893,795.024963 268.366058,797.643677 271.571808,800.708496 
	C282.538208,811.192871 294.904297,819.427917 309.494507,823.843262 
	C317.257294,826.192505 325.186707,828.088257 333.145111,829.661377 
	C338.801697,830.779419 344.619598,831.353699 350.388184,831.572571 
	C360.514557,831.956848 370.668854,831.658875 380.788422,832.135742 
	C383.866516,832.280701 386.642670,833.158813 389.344452,830.835876 
	C390.204224,830.096680 391.869476,830.266846 393.174286,830.076721 
	C413.603333,827.100342 432.675354,820.617676 449.114105,807.758667 
	C459.260956,799.821472 466.649689,789.639099 471.068848,777.543518 
	C473.053131,772.112305 474.406464,766.633362 474.448212,760.457214 
	C474.502441,752.436401 474.672302,744.593689 473.078003,736.672119 
	C471.019348,726.443237 466.993195,717.246521 459.935181,708.619141 
M853.216125,695.063538 
	C853.475952,694.116760 853.834229,693.184998 853.981018,692.220947 
	C856.219482,677.514038 862.063232,664.327820 872.706543,654.003479 
	C890.095581,637.135681 911.471313,635.362000 934.095581,639.475952 
	C947.736084,641.956360 958.594666,649.548096 969.735962,658.636108 
	C983.137451,644.256775 996.497253,629.922180 1009.949951,615.487915 
	C986.334473,592.415649 956.750854,579.422485 922.302795,578.176392 
	C901.749512,577.432922 881.597229,580.300171 862.208862,587.645203 
	C845.458252,593.990845 830.687500,603.360718 818.573853,616.551636 
	C808.457947,627.567200 800.307678,639.944275 794.637573,653.900146 
	C789.686829,666.085327 785.899109,678.792175 785.340393,691.739075 
	C784.752625,705.361084 784.323669,719.112122 787.103821,732.872375 
	C789.490112,744.682983 792.416809,756.211792 797.664368,766.897461 
	C803.979492,779.757141 812.391785,791.088928 823.349609,800.830688 
	C837.443176,813.360291 853.618103,821.209717 871.484070,825.887756 
	C882.121887,828.673096 892.847290,830.919128 904.108398,830.992188 
	C913.370056,831.052185 922.462341,832.939026 931.913086,830.941650 
	C945.664429,828.035217 959.685669,826.741760 972.878113,821.126770 
	C988.550659,814.456055 1002.505554,805.478577 1014.827698,793.508240 
	C1001.391052,778.518005 988.047241,763.631348 974.638367,748.672119 
	C970.420471,752.029541 966.805542,755.290222 962.822144,758.011780 
	C945.027588,770.169250 925.608032,775.567566 903.992065,772.038513 
	C885.478577,769.016052 871.313477,759.807800 862.015015,743.412170 
	C853.631592,728.629822 852.252258,712.492004 853.216125,695.063538 
M1112.000000,668.500000 
	C1112.000000,640.082825 1112.000000,611.665588 1112.000000,583.230957 
	C1089.049316,583.230957 1066.640869,583.230957 1044.082153,583.230957 
	C1044.082153,663.829956 1044.082153,744.197937 1044.082153,824.682495 
	C1066.792236,824.682495 1089.317749,824.682495 1111.801147,824.682495 
	C1111.894897,824.046448 1111.983154,823.726868 1111.983276,823.407349 
	C1111.993042,772.104919 1111.996338,720.802429 1112.000000,668.500000 
M731.041138,1344.323120 
	C731.041138,1341.580200 731.041138,1338.837280 731.041138,1336.448853 
	C737.213684,1334.833862 740.906067,1337.139893 743.644775,1341.762573 
	C744.469116,1343.154175 745.750671,1344.404663 747.094238,1345.322510 
	C748.464050,1346.258301 750.167786,1346.705322 751.725281,1347.366211 
	C751.918701,1346.977905 752.112122,1346.589478 752.305542,1346.201050 
	C749.270691,1342.965332 746.235901,1339.729614 743.103577,1336.389893 
	C744.171509,1335.885742 745.119690,1335.427734 746.076294,1334.988281 
	C750.543884,1332.935913 752.355896,1329.230835 751.824951,1324.599854 
	C751.271484,1319.773438 747.622375,1316.441284 742.460510,1316.076904 
	C737.722778,1315.742310 732.942871,1316.005737 727.959229,1316.005737 
	C727.959229,1325.824463 727.922974,1335.123047 728.018860,1344.420288 
	C728.027832,1345.290649 728.871521,1346.152344 729.327576,1347.018188 
	C729.897644,1346.434814 730.467651,1345.851440 731.041138,1344.323120 
M1269.958740,1329.505615 
	C1269.958740,1333.998291 1269.850464,1338.494995 1270.024170,1342.980957 
	C1270.076904,1344.343750 1270.908203,1345.676392 1271.382935,1347.022827 
	C1271.935669,1345.753418 1272.815430,1344.521973 1272.968628,1343.206055 
	C1273.231689,1340.947266 1273.041260,1338.635620 1273.041260,1336.470947 
	C1278.535889,1334.971069 1282.350464,1336.516724 1285.144531,1341.031494 
	C1286.171875,1342.691284 1287.605103,1344.218140 1289.163940,1345.393433 
	C1290.423462,1346.342896 1292.149536,1346.673340 1293.668701,1347.278442 
	C1293.865601,1346.901123 1294.062500,1346.523682 1294.259399,1346.146362 
	C1291.221313,1342.907349 1288.183228,1339.668213 1285.116211,1336.398438 
	C1291.719360,1333.422974 1294.565796,1329.719238 1293.959106,1325.001465 
	C1293.351807,1320.277710 1289.932373,1316.563354 1284.876465,1316.134399 
	C1279.994751,1315.720337 1275.050293,1316.044800 1269.958740,1316.044800 
	C1269.958740,1320.555542 1269.958740,1324.532227 1269.958740,1329.505615 
M470.017456,1321.783569 
	C464.174957,1312.336182 455.030334,1317.266724 446.958740,1315.837036 
	C446.958740,1325.682495 446.914124,1334.827271 447.021118,1343.970337 
	C447.033081,1344.992798 447.905334,1346.005371 448.378632,1347.022461 
	C448.932861,1345.918457 449.850006,1344.851318 449.966248,1343.703003 
	C450.212555,1341.269043 450.041321,1338.792725 450.041321,1336.509644 
	C455.600464,1334.870972 459.350830,1336.595947 462.155121,1341.067627 
	C463.195221,1342.726318 464.627014,1344.258179 466.192780,1345.430298 
	C467.440887,1346.364624 469.163666,1346.665039 470.675720,1347.246826 
	C470.861115,1346.868408 471.046509,1346.489990 471.231903,1346.111572 
	C468.186432,1342.865723 465.140991,1339.619873 462.057831,1336.333862 
	C469.962708,1332.973389 472.141449,1329.186279 470.017456,1321.783569 
M1055.643799,1315.958984 
	C1054.749390,1316.736084 1053.093750,1317.497070 1053.076904,1318.292603 
	C1052.891602,1327.109253 1052.918945,1335.931885 1053.033936,1344.750977 
	C1053.043823,1345.514160 1054.089355,1346.263794 1054.653931,1347.019775 
	C1055.116211,1346.159790 1055.921265,1345.321289 1055.976929,1344.435669 
	C1056.150513,1341.673584 1056.040649,1338.893433 1056.040649,1336.405396 
	C1062.031860,1334.915039 1065.807617,1337.018311 1068.571045,1341.666870 
	C1069.481323,1343.198242 1070.873657,1344.576538 1072.340942,1345.602661 
	C1073.603882,1346.486084 1075.287109,1346.768433 1076.784424,1347.316528 
	C1075.807495,1344.618164 1074.276245,1342.938354 1072.723267,1341.279053 
	C1071.191162,1339.641846 1069.636963,1338.025269 1068.005615,1336.308228 
	C1074.903809,1333.421509 1077.930420,1329.151001 1076.825439,1324.229370 
	C1075.545532,1318.529175 1071.827759,1316.007690 1064.604736,1315.961426 
	C1061.942017,1315.944336 1059.279175,1315.958740 1055.643799,1315.958984 
M1517.005859,1333.647217 
	C1520.265381,1333.647217 1523.525024,1333.647217 1527.458252,1333.647217 
	C1526.868042,1336.773804 1527.234985,1339.995850 1525.829712,1341.282471 
	C1521.971313,1344.815063 1517.078491,1345.075562 1512.115356,1343.239136 
	C1507.809082,1341.645996 1505.618286,1338.534180 1505.033325,1334.077881 
	C1503.580078,1323.005493 1513.163940,1315.432373 1524.040894,1320.503174 
	C1525.427246,1321.149292 1527.014160,1321.365845 1528.508057,1321.781494 
	C1528.641968,1321.282227 1528.775879,1320.783081 1528.909790,1320.283813 
	C1523.094116,1315.415161 1516.544678,1314.913208 1509.751221,1317.879517 
	C1503.558960,1320.583374 1501.819824,1326.041138 1501.963989,1332.328613 
	C1502.284302,1346.295288 1513.048950,1349.221924 1523.006226,1346.113037 
	C1530.810181,1343.676392 1530.798706,1343.271851 1529.543335,1330.960083 
	C1525.787476,1330.960083 1521.982544,1330.850098 1518.195435,1331.059814 
	C1517.501221,1331.098267 1516.878906,1332.435669 1517.005859,1333.647217 
M954.032349,1337.156372 
	C954.044922,1336.656860 953.955261,1336.128662 954.085510,1335.661987 
	C956.016907,1328.740967 953.402893,1321.640259 947.507263,1318.221191 
	C941.379395,1314.667725 932.179382,1316.077515 927.969482,1320.431396 
	C923.541138,1325.011353 923.927673,1330.132812 924.265564,1335.421509 
	C924.560730,1340.041626 926.938293,1343.826416 931.098999,1345.897949 
	C940.290039,1350.474121 949.150208,1347.268555 954.032349,1337.156372 
M666.620300,1345.128296 
	C668.613403,1346.095581 670.524536,1347.632935 672.613525,1347.933228 
	C682.637939,1349.374634 690.164978,1343.571655 691.943848,1333.388794 
	C692.865906,1328.110840 689.114685,1320.760132 684.097046,1318.012329 
	C678.580627,1314.991333 670.278931,1315.955566 665.994812,1319.303345 
	C659.484619,1324.390625 658.927368,1338.715332 666.620300,1345.128296 
M342.426727,1318.917725 
	C334.016571,1314.252930 326.489136,1315.233521 320.757843,1321.791626 
	C317.415985,1325.615601 318.038147,1330.239014 318.220886,1334.781128 
	C318.455200,1340.605713 323.670532,1346.940308 329.206116,1348.024780 
	C335.657959,1349.288818 344.236633,1345.452637 346.943939,1339.840576 
	C350.551025,1332.363159 349.174591,1324.228271 342.426727,1318.917725 
M1449.041626,1321.581543 
	C1448.571411,1318.941650 1450.027100,1318.607056 1452.209106,1318.674072 
	C1456.362671,1318.801758 1460.526001,1318.793091 1464.677856,1318.639893 
	C1465.580200,1318.606812 1466.451416,1317.726562 1467.336914,1317.236328 
	C1467.193115,1316.892578 1467.049438,1316.548706 1466.905640,1316.204834 
	C1460.028198,1316.204834 1453.150879,1316.204834 1446.160156,1316.204834 
	C1446.160156,1326.513916 1446.160156,1336.576294 1446.160156,1346.614258 
	C1457.752075,1347.941528 1465.563721,1347.338257 1467.386597,1344.510254 
	C1461.226562,1344.510254 1455.366333,1344.510254 1449.295166,1344.510254 
	C1449.295166,1340.430054 1449.295166,1336.880127 1449.295166,1332.757446 
	C1455.021606,1332.757446 1460.500977,1332.757446 1465.980225,1332.757446 
	C1466.037231,1332.188599 1466.094238,1331.619873 1466.151245,1331.051025 
	C1460.583008,1331.051025 1455.014893,1331.051025 1449.041260,1331.051025 
	C1449.041260,1327.468750 1449.041260,1325.012451 1449.041626,1321.581543 
M556.815247,1318.992310 
	C560.863770,1319.845581 564.912354,1320.698730 568.971985,1321.554321 
	C568.971985,1321.054932 569.094299,1320.648804 568.946777,1320.408447 
	C568.630676,1319.893677 568.234253,1319.392212 567.767456,1319.011841 
	C563.161865,1315.259399 557.869019,1315.320801 552.789124,1317.240723 
	C550.858398,1317.970337 549.084839,1320.509644 548.325623,1322.615479 
	C547.210083,1325.709839 547.743225,1329.014404 551.442017,1330.378784 
	C555.229858,1331.776367 559.286926,1332.505981 562.957031,1334.134277 
	C564.839783,1334.969604 567.557007,1337.345337 567.359741,1338.637207 
	C567.070801,1340.529785 564.798340,1342.941162 562.851990,1343.601807 
	C557.448486,1345.435669 552.578125,1343.919678 548.322266,1339.380981 
	C547.975403,1340.762695 547.883484,1342.163696 548.517944,1343.037109 
	C551.059998,1346.536987 559.334534,1348.200195 564.141235,1346.386963 
	C567.923279,1344.960571 571.108337,1342.715210 570.915344,1338.315918 
	C570.727051,1334.026001 567.929749,1331.637573 563.638855,1330.891357 
	C561.086060,1330.447388 558.435547,1329.965454 556.133667,1328.863892 
	C554.208496,1327.942627 551.746338,1326.366089 551.260620,1324.601318 
	C550.373779,1321.378662 552.783997,1319.562012 556.815247,1318.992310 
M1173.684937,1318.967529 
	C1169.218018,1315.389160 1164.124146,1315.251587 1159.167969,1317.169922 
	C1157.175293,1317.941284 1155.150635,1320.191406 1154.393677,1322.233032 
	C1153.207031,1325.433472 1153.553345,1328.948730 1157.541748,1330.422241 
	C1161.177490,1331.765381 1165.076660,1332.475220 1168.571899,1334.087891 
	C1170.552856,1335.001831 1171.955078,1337.169922 1173.618042,1338.773193 
	C1171.687622,1340.520142 1170.024292,1343.158569 1167.772583,1343.833130 
	C1162.696045,1345.353760 1158.152710,1343.582642 1154.281372,1339.308716 
	C1153.947388,1340.823730 1153.889526,1342.254028 1154.551880,1343.155029 
	C1156.920532,1346.377808 1165.389771,1348.343628 1169.863770,1346.597778 
	C1173.454834,1345.196655 1176.947510,1343.130371 1176.931885,1338.675659 
	C1176.916626,1334.339722 1174.230225,1331.828369 1169.995361,1330.936401 
	C1167.132080,1330.333374 1164.082031,1330.051392 1161.513916,1328.804932 
	C1159.680908,1327.915161 1157.078979,1325.321777 1157.370728,1324.095459 
	C1157.835571,1322.141479 1160.324829,1319.449707 1162.135620,1319.305908 
	C1165.271240,1319.056763 1168.535645,1320.552368 1171.761475,1321.244141 
	C1172.782349,1321.463013 1173.852417,1321.452148 1174.900024,1321.546509 
	C1174.744019,1320.777832 1174.588013,1320.009155 1173.684937,1318.967529 
M1345.423706,1318.966919 
	C1344.563599,1317.969971 1343.703613,1316.973145 1342.843506,1315.976196 
	C1341.701050,1316.987671 1340.068970,1317.777832 1339.495483,1319.046631 
	C1335.836426,1327.141357 1332.370117,1335.324829 1328.960815,1343.528931 
	C1328.558350,1344.497437 1328.889648,1345.770874 1328.880737,1346.902954 
	C1329.871582,1346.288818 1331.618530,1345.788574 1331.730835,1345.042236 
	C1332.462769,1340.180786 1335.612915,1339.632812 1339.603516,1340.008911 
	C1341.578613,1340.195068 1343.622314,1340.283691 1345.571167,1339.991333 
	C1349.747437,1339.364624 1352.234131,1341.080200 1353.848511,1344.849976 
	C1354.316040,1345.941650 1355.779785,1346.606567 1356.786743,1347.467163 
	C1357.059937,1347.194946 1357.333130,1346.922729 1357.606201,1346.650391 
	C1353.711670,1337.621704 1349.817139,1328.593018 1345.423706,1318.966919 
M990.988708,1332.388062 
	C991.014221,1333.552856 990.993896,1334.720947 991.072937,1335.882080 
	C991.511108,1342.320679 994.610779,1346.148560 999.804260,1346.705322 
	C1008.203735,1347.605835 1012.684387,1345.410645 1013.958130,1338.247925 
	C1015.077820,1331.951294 1014.786194,1325.393066 1014.937561,1318.946167 
	C1014.960388,1317.975586 1014.000061,1316.982178 1013.494446,1315.999268 
	C1012.992493,1316.985718 1012.088623,1317.959595 1012.057068,1318.961060 
	C1011.905212,1323.787354 1012.144348,1328.627075 1011.950317,1333.450439 
	C1011.684570,1340.054199 1007.701904,1344.468018 1002.476501,1344.315186 
	C996.728699,1344.146851 994.012329,1340.668457 994.011353,1333.473999 
	C994.010681,1328.476440 994.079041,1323.476929 993.944092,1318.483032 
	C993.921387,1317.643433 993.021912,1316.827515 992.527588,1316.000732 
	C992.014954,1316.809082 991.087524,1317.603271 991.059082,1318.428345 
	C990.910217,1322.754517 990.989014,1327.088379 990.988708,1332.388062 
M391.822235,1343.018921 
	C390.551941,1340.364746 388.489563,1337.798950 388.181244,1335.037476 
	C387.594849,1329.785034 388.082581,1324.418701 387.950104,1319.104126 
	C387.924133,1318.062500 387.109558,1317.040527 386.658661,1316.009399 
	C386.102051,1316.934448 385.077728,1317.853149 385.064819,1318.785767 
	C384.981903,1324.762085 384.983582,1330.747070 385.227081,1336.718262 
	C385.454895,1342.303101 388.859192,1346.167847 393.617859,1346.738159 
	C401.574463,1347.691772 406.822235,1345.341553 407.848022,1338.969360 
	C408.968414,1332.009277 408.720306,1324.823608 408.928406,1317.732056 
	C408.944733,1317.175537 407.860809,1316.586670 407.288269,1316.012817 
	C406.855682,1316.728149 406.064301,1317.435425 406.048248,1318.160034 
	C405.937653,1323.143188 406.121643,1328.134155 405.959198,1333.114502 
	C405.677795,1341.743042 400.488190,1345.623901 391.822235,1343.018921 
M1588.058228,1318.431885 
	C1588.276978,1317.709595 1588.495728,1316.987183 1588.714478,1316.264893 
	C1587.521729,1316.686768 1585.831543,1316.747803 1585.219971,1317.591187 
	C1582.112427,1321.875977 1579.284302,1326.363647 1576.370117,1330.762573 
	C1571.613892,1326.470337 1570.788940,1318.333008 1562.457397,1315.035645 
	C1564.000244,1317.501465 1564.852905,1318.672852 1565.509766,1319.945190 
	C1569.443848,1327.564087 1576.827148,1333.786499 1575.057007,1343.761108 
	C1574.886230,1344.722900 1576.087158,1345.928223 1576.651489,1347.020508 
	C1577.114746,1345.827759 1578.116699,1344.555054 1577.953491,1343.455200 
	C1576.909424,1336.413330 1579.333740,1330.624268 1583.701660,1325.303955 
	C1585.251587,1323.416016 1586.296875,1321.113892 1588.058228,1318.431885 
M279.433075,1327.024658 
	C281.678528,1323.530029 283.924011,1320.035400 286.169464,1316.540771 
	C285.745361,1316.230347 285.321259,1315.919800 284.897156,1315.609375 
	C278.629974,1318.648926 277.914368,1326.310547 273.280487,1330.688599 
	C268.319214,1326.671143 268.188812,1317.965210 259.573364,1315.273560 
	C261.040680,1317.569702 261.930084,1318.736938 262.585144,1320.023438 
	C266.475037,1327.663086 273.902191,1333.892090 272.040070,1343.869141 
	C271.864746,1344.808838 272.828247,1345.961060 273.263000,1347.014526 
	C273.855774,1345.953491 274.985779,1344.875122 274.952179,1343.834351 
	C274.764343,1338.015381 274.671600,1332.298340 279.433075,1327.024658 
M792.420288,1322.044556 
	C790.338806,1319.757568 790.329773,1314.927856 785.316284,1316.154785 
	C789.779358,1325.663940 799.261475,1333.050171 797.043701,1345.219238 
	C796.954468,1345.708984 798.062866,1346.416870 798.613281,1347.023193 
	C799.089050,1346.175415 800.085022,1345.241089 799.960754,1344.493042 
	C798.606812,1336.339478 801.896484,1329.804199 806.710938,1323.650757 
	C808.410706,1321.478149 809.648315,1318.943970 811.096924,1316.574829 
	C803.329712,1318.282227 803.120300,1326.532104 797.981750,1330.808838 
	C796.343445,1328.186523 794.607239,1325.407471 792.420288,1322.044556 
M1396.958740,1329.515869 
	C1396.958740,1334.013672 1396.848145,1338.515991 1397.025513,1343.006714 
	C1397.078979,1344.362183 1397.931030,1345.686035 1398.417114,1347.024414 
	C1398.958496,1345.741455 1399.945801,1344.466553 1399.968750,1343.174316 
	C1400.112427,1335.067139 1400.041260,1326.956177 1400.041260,1319.210083 
	C1403.821777,1317.768066 1407.928345,1320.290649 1411.289551,1316.563477 
	C1399.966675,1314.811035 1387.671509,1315.709595 1386.172119,1318.658691 
	C1389.794800,1318.658691 1393.192871,1318.658691 1396.958740,1318.658691 
	C1396.958740,1322.252808 1396.958740,1325.388550 1396.958740,1329.515869 
M1221.004028,1346.178467 
	C1224.095581,1348.353027 1224.043213,1346.151611 1224.042358,1344.001221 
	C1224.039429,1335.696411 1224.041138,1327.391724 1224.041138,1319.167969 
	C1227.617554,1317.774048 1231.832764,1320.097290 1234.511963,1316.715820 
	C1227.038696,1315.963379 1219.725342,1315.912598 1212.414917,1316.035278 
	C1211.608765,1316.048828 1210.819214,1317.055176 1210.021973,1317.601074 
	C1210.183960,1318.004395 1210.345947,1318.407593 1210.507935,1318.810791 
	C1213.910645,1318.810791 1217.313354,1318.810791 1220.961914,1318.810791 
	C1220.961914,1327.936768 1220.961914,1336.582031 1221.004028,1346.178467 
M614.958618,1330.511353 
	C614.958679,1334.675903 614.841736,1338.845581 615.025391,1343.002075 
	C615.085449,1344.360596 615.927856,1345.684448 616.412537,1347.024170 
	C616.955505,1345.742920 617.945496,1344.469604 617.968445,1343.178955 
	C618.112488,1335.070557 618.041321,1326.958374 618.041321,1319.510498 
	C621.728333,1317.401367 626.000793,1320.603638 629.240295,1316.563110 
	C618.236572,1314.837646 605.658325,1315.750000 604.169067,1318.651611 
	C607.785767,1318.651611 611.187195,1318.651611 614.958618,1318.651611 
	C614.958618,1322.578735 614.958618,1326.047363 614.958618,1330.511353 
z"/>
<path fill="#010101" opacity="1.000000" stroke="none" 
	d="
M992.025391,1134.835571 
	C1032.351318,1134.890015 1072.677368,1134.944580 1113.003296,1134.998535 
	C1114.805542,1135.000977 1116.607788,1134.998901 1118.664307,1134.998901 
	C1118.664307,1154.722656 1118.664307,1174.119751 1118.664307,1193.759399 
	C1052.949951,1193.759399 987.342896,1193.759399 921.241516,1193.759399 
	C921.241516,1163.062012 921.241516,1132.176392 921.241516,1100.981445 
	C891.686768,1100.981445 862.622986,1100.981445 833.106812,1100.981445 
	C833.106812,1131.738770 833.106812,1162.647705 833.106812,1193.777222 
	C809.585266,1193.777222 786.514526,1193.777222 763.221069,1193.777222 
	C763.221069,1111.584717 763.221069,1029.517334 763.221069,947.224365 
	C786.411438,947.224365 809.482178,947.224365 832.952026,947.224365 
	C832.952026,978.413147 832.952026,1009.485413 832.952026,1040.776855 
	C862.420227,1040.776855 891.490173,1040.776855 920.954102,1040.776855 
	C920.954102,1009.572937 920.954102,978.498718 920.954102,947.202942 
	C985.414673,947.202942 1049.481812,947.202942 1113.775146,947.202942 
	C1113.775146,966.570740 1113.775146,985.820435 1113.775146,1005.444031 
	C1073.051758,1005.444031 1032.439087,1005.444031 991.113831,1005.444031 
	C991.113831,1016.882507 991.113831,1027.963257 991.095093,1039.777588 
	C991.392761,1040.619385 991.709045,1040.727417 992.025391,1040.835449 
	C1028.343140,1040.889893 1064.661011,1040.944458 1100.978760,1040.998413 
	C1102.783081,1041.001099 1104.587280,1040.998901 1106.655396,1040.998901 
	C1106.655396,1059.886597 1106.655396,1078.467651 1106.655396,1097.611572 
	C1068.281494,1097.611572 1029.903320,1097.611572 991.113831,1097.611572 
	C991.113831,1109.793457 991.113831,1121.418701 991.095093,1133.777588 
	C991.392700,1134.619507 991.709045,1134.727539 992.025391,1134.835571 
z"/>
<path fill="#010101" opacity="1.000000" stroke="none" 
	d="
M1158.999146,1071.000000 
	C1158.999146,1029.527710 1158.999146,988.555298 1158.999146,947.266113 
	C1160.451904,947.168884 1161.720703,947.010193 1162.989502,947.009705 
	C1201.316528,946.996582 1239.643433,946.973816 1277.970337,947.038635 
	C1281.768677,947.045044 1285.565674,947.602783 1289.363647,947.902222 
	C1289.858521,947.941284 1290.354492,947.966980 1290.850098,947.996826 
	C1333.807495,950.583618 1365.173584,975.079224 1373.618408,1012.987183 
	C1378.759521,1036.064819 1376.494629,1058.618042 1361.939697,1078.595337 
	C1354.477051,1088.838135 1344.273193,1095.680298 1333.424072,1101.717285 
	C1330.380493,1103.410889 1327.194946,1104.849854 1323.661377,1106.611694 
	C1332.085938,1117.536011 1340.400391,1128.315186 1348.712402,1139.096191 
	C1361.252197,1155.360718 1373.826538,1171.599121 1386.269653,1187.937378 
	C1387.415161,1189.441406 1387.718994,1191.586548 1388.626953,1194.000854 
	C1364.171509,1194.000854 1340.690918,1193.826294 1317.216675,1194.135254 
	C1311.974731,1194.204102 1309.150391,1192.574463 1306.151489,1188.214355 
	C1295.402954,1172.586060 1283.989502,1157.415405 1272.844116,1142.059326 
	C1266.639771,1133.511108 1260.518188,1124.901978 1254.222534,1116.421875 
	C1253.394043,1115.305908 1251.773193,1114.150391 1250.483765,1114.108643 
	C1243.515869,1113.882446 1236.536621,1114.001343 1229.166260,1114.001343 
	C1229.166260,1140.631958 1229.166260,1167.036499 1229.166260,1193.719849 
	C1205.702515,1193.719849 1182.632690,1193.719849 1158.999146,1193.719849 
	C1158.999146,1153.015259 1158.999146,1112.257568 1158.999146,1071.000000 
M1231.599487,1002.761475 
	C1228.069580,1002.312561 1229.029419,1004.933777 1229.025391,1006.694519 
	C1228.985229,1024.187256 1228.994995,1041.679932 1229.018433,1059.172729 
	C1229.019653,1060.097900 1229.269897,1061.022827 1229.406494,1061.964355 
	C1247.355347,1061.964355 1265.010254,1062.041992 1282.663818,1061.924072 
	C1289.251343,1061.880127 1295.246216,1059.602661 1299.546631,1054.554077 
	C1308.723999,1043.780029 1309.082764,1031.480591 1304.117920,1018.940125 
	C1299.533936,1007.361389 1290.331909,1002.568359 1278.067139,1002.716858 
	C1262.908936,1002.900513 1247.746826,1002.760681 1231.599487,1002.761475 
z"/>
<path fill="#010101" opacity="1.000000" stroke="none" 
	d="
M1501.003418,1005.567017 
	C1496.511230,1005.566956 1492.518677,1005.566956 1488.264160,1005.566956 
	C1488.264160,1017.316711 1488.264160,1028.904907 1488.264160,1040.936523 
	C1527.011597,1040.936523 1565.735352,1040.936523 1604.689331,1040.936523 
	C1604.689331,1059.954712 1604.689331,1078.532471 1604.689331,1097.581055 
	C1565.858154,1097.581055 1527.135132,1097.581055 1488.208252,1097.581055 
	C1488.208252,1110.158813 1488.208252,1122.269043 1488.208252,1134.819580 
	C1530.896362,1134.819580 1573.619873,1134.819580 1616.632080,1134.819580 
	C1616.632080,1154.650391 1616.632080,1174.045044 1616.632080,1193.721191 
	C1550.915405,1193.721191 1485.200073,1193.721191 1419.241455,1193.721191 
	C1419.241455,1111.636597 1419.241455,1029.579224 1419.241455,947.249817 
	C1483.312988,947.249817 1547.371338,947.249817 1611.715820,947.249817 
	C1611.715820,966.446960 1611.715820,985.698181 1611.715820,1005.567017 
	C1575.026978,1005.567017 1538.265137,1005.567017 1501.003418,1005.567017 
z"/>
<path fill="#000000" opacity="1.000000" stroke="none" 
	d="
M626.990112,946.999390 
	C639.292358,948.325256 651.106018,949.575806 662.896729,951.014038 
	C667.652039,951.593994 672.702942,951.770752 676.997803,953.594727 
	C682.392029,955.885437 687.193542,959.608582 692.171631,962.835693 
	C711.013733,975.050354 722.289978,992.322327 728.234741,1013.944336 
	C732.125366,1028.095093 731.028931,1041.870483 728.931030,1055.810181 
	C726.763489,1070.212524 720.750427,1083.073364 711.564575,1094.365723 
	C701.640442,1106.565674 688.633545,1114.382080 674.133301,1119.883911 
	C659.871887,1125.295044 644.928833,1126.813721 629.828003,1126.965210 
	C614.040161,1127.123657 598.249512,1127.000488 582.070435,1127.000488 
	C582.070435,1149.395874 582.070435,1171.464111 582.070435,1193.764648 
	C558.614929,1193.764648 535.549744,1193.764648 512.241638,1193.764648 
	C512.241638,1111.644287 512.241638,1029.596558 512.241638,946.999390 
	C550.324951,946.999390 588.408630,946.999390 626.990112,946.999390 
M582.005737,1008.724182 
	C582.005737,1028.459106 582.005737,1048.194092 582.005737,1067.999023 
	C583.378723,1067.999023 584.042114,1067.999146 584.705444,1067.999023 
	C600.530334,1067.995361 616.355835,1068.078003 632.179932,1067.964966 
	C649.715332,1067.839722 660.991699,1056.008301 660.996948,1037.953369 
	C661.002258,1019.510254 649.339783,1007.121948 631.761475,1007.037659 
	C616.603149,1006.965027 601.444275,1007.002075 586.285828,1007.053223 
	C584.880615,1007.057922 583.477051,1007.514954 582.005737,1008.724182 
z"/>
<path fill="#010101" opacity="1.000000" stroke="none" 
	d="
M1400.666016,786.291931 
	C1406.528931,799.259949 1412.145874,811.929626 1417.941040,825.001221 
	C1394.030151,825.001221 1370.597412,825.064209 1347.167236,824.849243 
	C1345.719238,824.835938 1343.589844,822.922363 1342.966675,821.404602 
	C1338.548584,810.644592 1334.505371,799.731262 1330.184204,788.930237 
	C1329.233276,786.553650 1327.858643,784.867188 1324.452271,784.886475 
	C1290.802979,785.076904 1257.152100,784.967712 1223.502441,785.114014 
	C1222.009766,785.120483 1219.692139,786.425964 1219.164429,787.705811 
	C1214.131104,799.913757 1209.401245,812.246826 1204.496094,824.769043 
	C1180.277100,824.769043 1155.986206,824.769043 1131.354370,824.769043 
	C1134.984131,817.030212 1138.694336,809.359985 1142.193359,801.594604 
	C1145.945435,793.267639 1149.429688,784.820068 1153.158691,776.482422 
	C1156.722778,768.513855 1160.482666,760.633240 1164.098511,752.687561 
	C1167.813965,744.522949 1171.505737,736.346680 1175.122925,728.138062 
	C1178.916382,719.529541 1182.581421,710.864563 1186.353638,702.246643 
	C1189.922852,694.092468 1193.484619,685.933655 1197.184937,677.838623 
	C1201.028320,669.430847 1205.075928,661.116638 1208.955811,652.725220 
	C1212.717407,644.589355 1216.386963,636.410828 1220.082764,628.244568 
	C1223.809937,620.009216 1227.586426,611.795166 1231.211304,603.514954 
	C1233.328125,598.679688 1235.236816,593.751160 1237.152954,588.830994 
	C1238.603760,585.105530 1240.354492,582.779419 1245.227661,582.854919 
	C1266.703979,583.187561 1288.188477,582.998535 1309.603760,582.998535 
	C1333.502686,636.360840 1357.312256,689.508972 1381.106934,742.663757 
	C1387.567871,757.096619 1393.983521,771.549744 1400.666016,786.291931 
M1250.312500,710.756165 
	C1248.145752,716.255554 1245.979126,721.754883 1243.724365,727.477661 
	C1264.590210,727.477661 1284.822876,727.477661 1305.728882,727.477661 
	C1295.412964,701.757080 1285.278687,676.489319 1274.814819,650.399841 
	C1266.487915,671.010132 1258.593018,690.551270 1250.312500,710.756165 
z"/>
<path fill="#010101" opacity="1.000000" stroke="none" 
	d="
M415.001587,1195.006592 
	C405.130280,1196.697266 395.736389,1198.998291 386.213745,1199.836426 
	C374.537384,1200.864136 362.718750,1201.383545 351.024475,1200.819702 
	C336.458252,1200.117310 322.194489,1197.333984 308.416779,1191.937378 
	C296.219025,1187.159790 285.360443,1180.376953 275.245819,1172.328491 
	C269.738037,1167.945801 264.862030,1162.768921 259.513062,1157.774780 
	C263.123444,1153.569092 266.391449,1149.713501 269.711914,1145.903809 
	C278.635223,1135.665405 287.523132,1125.394287 296.649353,1115.339600 
	C297.250366,1114.677490 300.224304,1115.164673 301.274109,1116.069214 
	C312.557373,1125.791992 324.960297,1133.432007 339.504395,1137.158447 
	C344.815582,1138.519287 350.208313,1140.309570 355.602264,1140.452271 
	C368.980438,1140.806152 382.710449,1143.330444 395.467560,1137.023804 
	C402.275909,1133.657959 409.142914,1130.119751 410.007599,1121.027954 
	C410.730804,1113.423828 406.302795,1109.148804 400.592041,1105.856567 
	C394.070496,1102.096924 387.467163,1098.913208 379.427094,1098.791626 
	C370.654663,1098.659058 361.717438,1097.807373 353.184509,1095.832520 
	C334.441772,1091.494507 314.939972,1089.309814 298.355194,1078.093018 
	C284.152588,1068.487549 274.954315,1055.849854 270.034332,1039.094238 
	C266.808380,1028.107788 267.366272,1017.199646 268.467804,1006.781555 
	C270.596100,986.652222 281.507782,970.861084 299.093414,960.153198 
	C317.261932,949.090454 337.203949,944.491638 358.236206,942.874695 
	C382.827667,940.984009 406.730804,943.216919 429.856171,952.006287 
	C442.129517,956.671021 453.409119,963.139038 463.683380,971.419006 
	C452.327759,985.980408 441.031158,1000.466064 429.771759,1014.904114 
	C424.171204,1011.972717 418.938232,1008.520691 413.209473,1006.422180 
	C406.575806,1003.992188 399.589447,1002.211914 392.604218,1001.135986 
	C384.276703,999.853271 375.798401,999.404419 367.365997,998.988464 
	C359.124237,998.581787 351.266113,1000.368530 344.379303,1005.124878 
	C337.634186,1009.783386 335.788605,1019.533325 340.102692,1026.413452 
	C340.191223,1026.554565 340.247437,1026.770508 340.373627,1026.825562 
	C346.051056,1029.299316 349.990845,1034.182373 356.934509,1035.379517 
	C387.661041,1040.677246 419.658295,1041.628540 446.886780,1060.021118 
	C456.321136,1066.393921 463.975586,1074.463745 470.407257,1083.575806 
	C473.294220,1087.666016 473.878204,1093.307495 476.051910,1097.992310 
	C479.446564,1105.308838 478.817657,1113.041748 478.918732,1120.666748 
	C479.003296,1127.046997 479.919739,1134.056030 477.690338,1139.686890 
	C473.707764,1149.745483 469.354218,1159.870117 461.573212,1168.074341 
	C448.748657,1181.596680 433.004547,1189.780029 415.001587,1195.006592 
z"/>
<path fill="#010101" opacity="1.000000" stroke="none" 
	d="
M460.153198,708.903442 
	C466.993195,717.246521 471.019348,726.443237 473.078003,736.672119 
	C474.672302,744.593689 474.502441,752.436401 474.448212,760.457214 
	C474.406464,766.633362 473.053131,772.112305 471.068848,777.543518 
	C466.649689,789.639099 459.260956,799.821472 449.114105,807.758667 
	C432.675354,820.617676 413.603333,827.100342 393.174286,830.076721 
	C391.869476,830.266846 390.204224,830.096680 389.344452,830.835876 
	C386.642670,833.158813 383.866516,832.280701 380.788422,832.135742 
	C370.668854,831.658875 360.514557,831.956848 350.388184,831.572571 
	C344.619598,831.353699 338.801697,830.779419 333.145111,829.661377 
	C325.186707,828.088257 317.257294,826.192505 309.494507,823.843262 
	C294.904297,819.427917 282.538208,811.192871 271.571808,800.708496 
	C268.366058,797.643677 264.721893,795.024963 261.642151,791.849243 
	C260.814484,790.995850 260.603271,788.228882 261.326965,787.385925 
	C270.757629,776.402405 280.421967,765.619751 289.986755,754.750671 
	C291.384735,753.162048 292.948395,751.553345 293.778564,749.665161 
	C295.561859,745.609009 297.629425,746.497803 300.176849,748.750244 
	C310.901154,758.232666 322.931763,765.566833 336.766113,769.386902 
	C353.509857,774.010315 370.538269,775.985535 387.583923,771.125000 
	C392.316010,769.775635 397.145386,767.551758 400.983276,764.527527 
	C409.749725,757.619568 409.284973,745.681580 399.984283,739.528809 
	C391.011780,733.593262 380.803955,731.245056 369.968750,730.844727 
	C363.064667,730.589478 356.197693,729.058533 349.337830,727.952271 
	C341.686218,726.718262 333.802399,726.127075 326.489624,723.787354 
	C316.998810,720.750671 307.913055,716.397827 298.760681,712.366943 
	C288.290405,707.755737 281.142731,699.423218 275.681610,689.789368 
	C272.754913,684.626343 270.522156,678.836792 269.208160,673.050232 
	C267.467133,665.383118 266.466522,657.544434 266.916077,649.517578 
	C268.248169,625.732666 278.744659,607.474548 299.107300,595.128723 
	C316.269287,584.723450 335.231873,580.589417 355.072906,578.859131 
	C376.739288,576.969482 397.858215,578.995117 418.641113,585.036987 
	C433.643921,589.398438 447.064148,596.877502 459.798187,606.802368 
	C448.650848,621.085999 437.548126,635.312378 427.304504,648.438049 
	C415.601685,644.004150 404.738068,639.407104 393.543121,635.854004 
	C388.112000,634.130371 382.073151,634.175171 376.284851,633.774109 
	C372.327850,633.499939 368.227570,633.299438 364.369904,634.020813 
	C357.351257,635.333252 349.797119,636.098511 343.669250,639.355347 
	C332.409485,645.339783 333.087494,660.695007 344.783417,666.043030 
	C351.685730,669.199158 359.576355,670.443787 367.157501,671.785034 
	C373.010742,672.820557 379.312256,671.745544 385.000671,673.212891 
	C404.800568,678.320679 425.505493,681.253418 442.695068,693.560364 
	C448.870270,697.981445 454.212677,703.565735 460.153198,708.903442 
z"/>
<path fill="#010101" opacity="1.000000" stroke="none" 
	d="
M853.116394,695.512207 
	C852.252258,712.492004 853.631592,728.629822 862.015015,743.412170 
	C871.313477,759.807800 885.478577,769.016052 903.992065,772.038513 
	C925.608032,775.567566 945.027588,770.169250 962.822144,758.011780 
	C966.805542,755.290222 970.420471,752.029541 974.638367,748.672119 
	C988.047241,763.631348 1001.391052,778.518005 1014.827698,793.508240 
	C1002.505554,805.478577 988.550659,814.456055 972.878113,821.126770 
	C959.685669,826.741760 945.664429,828.035217 931.913086,830.941650 
	C922.462341,832.939026 913.370056,831.052185 904.108398,830.992188 
	C892.847290,830.919128 882.121887,828.673096 871.484070,825.887756 
	C853.618103,821.209717 837.443176,813.360291 823.349609,800.830688 
	C812.391785,791.088928 803.979492,779.757141 797.664368,766.897461 
	C792.416809,756.211792 789.490112,744.682983 787.103821,732.872375 
	C784.323669,719.112122 784.752625,705.361084 785.340393,691.739075 
	C785.899109,678.792175 789.686829,666.085327 794.637573,653.900146 
	C800.307678,639.944275 808.457947,627.567200 818.573853,616.551636 
	C830.687500,603.360718 845.458252,593.990845 862.208862,587.645203 
	C881.597229,580.300171 901.749512,577.432922 922.302795,578.176392 
	C956.750854,579.422485 986.334473,592.415649 1009.949951,615.487915 
	C996.497253,629.922180 983.137451,644.256775 969.735962,658.636108 
	C958.594666,649.548096 947.736084,641.956360 934.095581,639.475952 
	C911.471313,635.362000 890.095581,637.135681 872.706543,654.003479 
	C862.063232,664.327820 856.219482,677.514038 853.981018,692.220947 
	C853.834229,693.184998 853.475952,694.116760 853.116394,695.512207 
z"/>
<path fill="#080505" opacity="1.000000" stroke="none" 
	d="
M722.621826,619.213745 
	C737.616028,636.060730 748.338806,655.227539 753.388916,677.285156 
	C762.275879,716.101807 754.628845,751.717407 731.418701,783.859070 
	C715.743286,805.566589 694.589722,820.156250 669.473816,829.165466 
	C653.692078,834.826538 637.387817,836.376953 620.740295,835.928345 
	C606.546326,835.545837 593.235291,831.641235 579.817627,827.409790 
	C567.367493,823.483521 556.973816,816.027588 546.984192,808.559937 
	C537.620056,801.559875 529.594421,792.591125 522.761963,782.499207 
	C514.717224,770.616760 508.543854,758.134460 504.129425,744.646729 
	C499.374298,730.117859 498.730774,715.118591 499.048706,699.966553 
	C499.431763,681.712341 504.791382,664.797974 512.282532,648.435913 
	C516.348633,639.554810 522.142151,631.725159 528.354614,624.242432 
	C546.505554,602.380127 569.524658,588.076050 597.132690,581.779602 
	C639.549561,572.105652 677.785217,581.189148 711.451172,608.932068 
	C712.980652,610.192444 714.490662,611.476318 716.118286,613.314148 
	C715.250732,615.009094 714.341614,616.205933 713.288635,617.259094 
	C691.851685,638.702393 670.397034,660.127930 648.948853,681.560059 
	C641.642273,688.861206 634.243042,696.075195 627.149475,703.577942 
	C626.074768,704.714661 625.586426,707.699768 626.317444,708.976196 
	C627.773987,711.519348 630.224182,710.859741 632.206665,708.966492 
	C633.049927,708.161133 633.868469,707.329712 634.692993,706.504883 
	C662.609070,678.580872 690.520203,650.651855 718.454285,622.745789 
	C719.738220,621.463135 721.227905,620.386353 722.621826,619.213745 
M634.239258,688.031921 
	C637.899109,684.600464 641.558960,681.169067 645.354492,677.610413 
	C630.982544,668.291992 610.328003,672.987549 600.342346,687.140991 
	C589.391113,702.663086 592.375671,723.196106 607.268372,734.790039 
	C621.797302,746.100769 642.784302,743.791077 654.936890,729.901978 
	C665.530396,717.794739 665.154175,697.491760 657.689453,690.839294 
	C654.325256,694.658813 650.957581,698.482300 646.895386,702.486572 
	C643.581177,705.737122 640.317139,709.040771 636.940796,712.225525 
	C632.010925,716.875732 626.893494,717.218018 622.818909,713.291199 
	C618.773682,709.392639 619.183411,703.717468 623.849182,698.742981 
	C627.121826,695.253723 630.373901,691.745239 634.239258,688.031921 
M592.725708,795.850159 
	C545.487671,775.501282 522.555176,726.560242 537.731079,678.483948 
	C554.946838,623.945557 615.982605,596.720947 667.957031,620.622620 
	C675.413757,624.051758 682.267944,628.791260 688.671021,632.501343 
	C692.783020,628.464539 696.876221,624.446106 700.946960,620.449768 
	C661.085510,584.905823 590.181274,581.443542 544.896423,630.713623 
	C501.464752,677.967346 505.376373,749.691895 553.723328,792.761047 
	C599.798706,833.806641 674.871521,829.200012 715.554260,780.321777 
	C755.469360,732.365784 745.854980,666.647827 715.283203,635.194580 
	C711.119446,639.159607 706.949707,643.130371 702.692017,647.184937 
	C703.061890,647.720520 703.419800,648.264648 703.803040,648.790161 
	C726.534973,679.955566 730.791504,713.417664 714.497070,748.451721 
	C694.042603,792.430176 642.024536,815.064270 592.725708,795.850159 
M613.862244,780.779907 
	C617.327148,781.231079 620.781067,781.950684 624.258606,782.093262 
	C679.106201,784.341858 717.197021,732.021606 698.203918,680.507690 
	C695.703430,673.725891 692.566162,667.226074 688.041748,662.633545 
	C683.415771,666.809509 679.139282,670.669983 674.913757,674.484436 
	C693.445740,702.858276 685.163330,735.051575 662.922607,752.500427 
	C641.989502,768.923279 609.935059,767.616089 590.261902,749.223083 
	C569.180298,729.513184 565.793396,698.153381 582.073730,674.775024 
	C596.265198,654.396240 628.804749,640.029053 661.024414,660.516357 
	C665.225525,656.378174 669.339478,652.325867 673.719116,648.011841 
	C672.814880,647.321228 671.706299,646.372986 670.501282,645.569336 
	C651.534180,632.921265 630.941223,629.606812 608.932190,635.155823 
	C570.001099,644.971252 545.142517,687.641052 556.158447,726.217529 
	C564.460205,755.288879 583.778564,773.254089 613.862244,780.779907 
z"/>
<path fill="#000000" opacity="1.000000" stroke="none" 
	d="
M1507.027222,766.802002 
	C1543.340210,766.844116 1579.653076,766.886292 1615.966064,766.928040 
	C1617.782715,766.930176 1619.599365,766.928345 1621.716064,766.928345 
	C1621.716064,786.185059 1621.716064,805.261292 1621.716064,824.669312 
	C1560.696167,824.669312 1499.499023,824.669312 1438.009766,824.669312 
	C1438.009766,744.351929 1438.009766,663.977539 1438.009766,583.301392 
	C1460.397705,583.301392 1482.958862,583.301392 1506.010620,583.301392 
	C1506.010620,643.892822 1506.010620,704.471802 1506.035156,765.796997 
	C1506.382324,766.629456 1506.704712,766.715698 1507.027222,766.802002 
z"/>
<path fill="#000000" opacity="1.000000" stroke="none" 
	d="
M1112.000000,669.000000 
	C1111.996338,720.802429 1111.993042,772.104919 1111.983276,823.407349 
	C1111.983154,823.726868 1111.894897,824.046448 1111.801147,824.682495 
	C1089.317749,824.682495 1066.792236,824.682495 1044.082153,824.682495 
	C1044.082153,744.197937 1044.082153,663.829956 1044.082153,583.230957 
	C1066.640869,583.230957 1089.049316,583.230957 1112.000000,583.230957 
	C1112.000000,611.665588 1112.000000,640.082825 1112.000000,669.000000 
z"/>
<path fill="#DC0C18" opacity="1.000000" stroke="none" 
	d="
M722.717834,618.922058 
	C721.227905,620.386353 719.738220,621.463135 718.454285,622.745789 
	C690.520203,650.651855 662.609070,678.580872 634.692993,706.504883 
	C633.868469,707.329712 633.049927,708.161133 632.206665,708.966492 
	C630.224182,710.859741 627.773987,711.519348 626.317444,708.976196 
	C625.586426,707.699768 626.074768,704.714661 627.149475,703.577942 
	C634.243042,696.075195 641.642273,688.861206 648.948853,681.560059 
	C670.397034,660.127930 691.851685,638.702393 713.288635,617.259094 
	C714.341614,616.205933 715.250732,615.009094 716.387085,613.568909 
	C723.107239,609.362000 721.274902,603.355896 719.743896,598.016907 
	C718.835449,594.848938 719.480469,593.119751 721.571472,591.139221 
	C727.349792,585.666199 733.046265,580.106812 739.255798,574.301208 
	C740.482971,574.987732 741.229431,575.954529 741.975891,576.921326 
	C742.013245,578.025330 742.050598,579.129333 742.164429,580.919922 
	C742.536377,582.368347 742.831848,583.130188 743.127258,583.892029 
	C743.328857,586.058838 743.530518,588.225708 744.046570,591.027527 
	C745.582581,591.885742 746.804260,592.108948 748.025879,592.332153 
	C749.104980,592.540344 750.184143,592.748535 751.894043,593.176025 
	C753.348022,593.460999 754.171326,593.526672 754.994568,593.592285 
	C755.765869,593.733887 756.537109,593.875488 758.038940,594.182861 
	C759.813782,594.427307 760.857971,594.506042 761.902222,594.584717 
	C761.122925,595.920959 760.588013,597.505615 759.523926,598.552368 
	C753.539551,604.439636 747.427795,610.197266 740.918030,616.421143 
	C737.718933,615.877014 733.465515,614.582581 729.241211,614.671509 
	C727.071960,614.717163 724.954651,617.231628 722.717834,618.922058 
z"/>
<path fill="#151515" opacity="1.000000" stroke="none" 
	d="
M731.039429,1344.795654 
	C730.467651,1345.851440 729.897644,1346.434814 729.327637,1347.018188 
	C728.871521,1346.152344 728.027832,1345.290649 728.018860,1344.420288 
	C727.922974,1335.123047 727.959229,1325.824463 727.959229,1316.005737 
	C732.942871,1316.005737 737.722778,1315.742310 742.460510,1316.076904 
	C747.622375,1316.441284 751.271484,1319.773438 751.824951,1324.599854 
	C752.355896,1329.230835 750.543884,1332.935913 746.076294,1334.988281 
	C745.119690,1335.427734 744.171509,1335.885742 743.103577,1336.389893 
	C746.235901,1339.729614 749.270691,1342.965332 752.305542,1346.201050 
	C752.112122,1346.589478 751.918701,1346.977905 751.725281,1347.366211 
	C750.167786,1346.705322 748.464050,1346.258301 747.094238,1345.322510 
	C745.750671,1344.404663 744.469116,1343.154175 743.644775,1341.762573 
	C740.906067,1337.139893 737.213684,1334.833862 731.041138,1336.448853 
	C731.041138,1338.837280 731.041138,1341.580200 731.039429,1344.795654 
M748.929260,1327.191406 
	C748.684204,1318.921631 744.613098,1317.081299 731.388611,1319.233521 
	C731.388611,1323.802124 731.388611,1328.354614 731.388611,1332.968262 
	C734.909668,1332.968262 738.076599,1332.883179 741.237061,1332.990234 
	C745.005188,1333.117798 747.732300,1331.828979 748.929260,1327.191406 
z"/>
<path fill="#151515" opacity="1.000000" stroke="none" 
	d="
M1269.958740,1329.007324 
	C1269.958740,1324.532227 1269.958740,1320.555542 1269.958740,1316.044800 
	C1275.050293,1316.044800 1279.994751,1315.720337 1284.876465,1316.134399 
	C1289.932373,1316.563354 1293.351807,1320.277710 1293.959106,1325.001465 
	C1294.565796,1329.719238 1291.719360,1333.422974 1285.116211,1336.398438 
	C1288.183228,1339.668213 1291.221313,1342.907349 1294.259399,1346.146362 
	C1294.062500,1346.523682 1293.865601,1346.901123 1293.668701,1347.278442 
	C1292.149536,1346.673340 1290.423462,1346.342896 1289.163940,1345.393433 
	C1287.605103,1344.218140 1286.171875,1342.691284 1285.144531,1341.031494 
	C1282.350464,1336.516724 1278.535889,1334.971069 1273.041260,1336.470947 
	C1273.041260,1338.635620 1273.231689,1340.947266 1272.968628,1343.206055 
	C1272.815430,1344.521973 1271.935669,1345.753418 1271.382935,1347.022827 
	C1270.908203,1345.676392 1270.076904,1344.343750 1270.024170,1342.980957 
	C1269.850464,1338.494995 1269.958740,1333.998291 1269.958740,1329.007324 
M1275.563477,1318.695923 
	C1274.727539,1319.197998 1273.192139,1319.666992 1273.166504,1320.207642 
	C1272.966064,1324.435181 1273.055542,1328.676514 1273.055542,1332.967285 
	C1277.067505,1332.967285 1280.390137,1333.035522 1283.708984,1332.951172 
	C1288.579956,1332.827148 1290.909546,1330.562012 1290.965942,1326.059448 
	C1291.022339,1321.564575 1288.744751,1319.076904 1284.010864,1318.738647 
	C1281.531250,1318.561646 1279.029297,1318.698975 1275.563477,1318.695923 
z"/>
<path fill="#151515" opacity="1.000000" stroke="none" 
	d="
M470.055542,1322.177124 
	C472.141449,1329.186279 469.962708,1332.973389 462.057831,1336.333862 
	C465.140991,1339.619873 468.186432,1342.865723 471.231903,1346.111572 
	C471.046509,1346.489990 470.861115,1346.868408 470.675720,1347.246826 
	C469.163666,1346.665039 467.440887,1346.364624 466.192780,1345.430298 
	C464.627014,1344.258179 463.195221,1342.726318 462.155121,1341.067627 
	C459.350830,1336.595947 455.600464,1334.870972 450.041321,1336.509644 
	C450.041321,1338.792725 450.212555,1341.269043 449.966248,1343.703003 
	C449.850006,1344.851318 448.932861,1345.918457 448.378632,1347.022461 
	C447.905334,1346.005371 447.033081,1344.992798 447.021118,1343.970337 
	C446.914124,1334.827271 446.958740,1325.682495 446.958740,1315.837036 
	C455.030334,1317.266724 464.174957,1312.336182 470.055542,1322.177124 
M457.383911,1332.968628 
	C458.381348,1332.968384 459.379578,1332.993774 460.376129,1332.963745 
	C465.438721,1332.811279 467.774323,1330.780029 467.965210,1326.384888 
	C468.170624,1321.655029 465.820496,1319.014160 460.830048,1318.741943 
	C457.387177,1318.553955 453.925781,1318.705688 450.291748,1318.705688 
	C450.291748,1323.591797 450.291748,1328.144287 450.291748,1332.968628 
	C452.511169,1332.968628 454.479675,1332.968628 457.383911,1332.968628 
z"/>
<path fill="#151515" opacity="1.000000" stroke="none" 
	d="
M1056.130127,1315.958862 
	C1059.279175,1315.958740 1061.942017,1315.944336 1064.604736,1315.961426 
	C1071.827759,1316.007690 1075.545532,1318.529175 1076.825439,1324.229370 
	C1077.930420,1329.151001 1074.903809,1333.421509 1068.005615,1336.308228 
	C1069.636963,1338.025269 1071.191162,1339.641846 1072.723267,1341.279053 
	C1074.276245,1342.938354 1075.807495,1344.618164 1076.784424,1347.316528 
	C1075.287109,1346.768433 1073.603882,1346.486084 1072.340942,1345.602661 
	C1070.873657,1344.576538 1069.481323,1343.198242 1068.571045,1341.666870 
	C1065.807617,1337.018311 1062.031860,1334.915039 1056.040649,1336.405396 
	C1056.040649,1338.893433 1056.150513,1341.673584 1055.976929,1344.435669 
	C1055.921265,1345.321289 1055.116211,1346.159790 1054.653931,1347.019775 
	C1054.089355,1346.263794 1053.043823,1345.514160 1053.033936,1344.750977 
	C1052.918945,1335.931885 1052.891602,1327.109253 1053.076904,1318.292603 
	C1053.093750,1317.497070 1054.749390,1316.736084 1056.130127,1315.958862 
M1056.031860,1330.307617 
	C1056.812866,1331.193970 1057.522095,1332.751831 1058.387939,1332.844360 
	C1061.344604,1333.160400 1064.358521,1333.031372 1067.346680,1332.941528 
	C1071.519897,1332.816162 1073.762939,1330.592407 1073.954590,1326.416260 
	C1074.151245,1322.126465 1072.293701,1319.238770 1067.853394,1318.887939 
	C1064.090576,1318.590820 1060.285522,1318.826782 1056.031372,1318.826782 
	C1056.031372,1322.440674 1056.031372,1325.891602 1056.031860,1330.307617 
z"/>
<path fill="#151515" opacity="1.000000" stroke="none" 
	d="
M1516.614746,1333.410400 
	C1516.878906,1332.435669 1517.501221,1331.098267 1518.195435,1331.059814 
	C1521.982544,1330.850098 1525.787476,1330.960083 1529.543335,1330.960083 
	C1530.798706,1343.271851 1530.810181,1343.676392 1523.006226,1346.113037 
	C1513.048950,1349.221924 1502.284302,1346.295288 1501.963989,1332.328613 
	C1501.819824,1326.041138 1503.558960,1320.583374 1509.751221,1317.879517 
	C1516.544678,1314.913208 1523.094116,1315.415161 1528.909790,1320.283813 
	C1528.775879,1320.783081 1528.641968,1321.282227 1528.508057,1321.781494 
	C1527.014160,1321.365845 1525.427246,1321.149292 1524.040894,1320.503174 
	C1513.163940,1315.432373 1503.580078,1323.005493 1505.033325,1334.077881 
	C1505.618286,1338.534180 1507.809082,1341.645996 1512.115356,1343.239136 
	C1517.078491,1345.075562 1521.971313,1344.815063 1525.829712,1341.282471 
	C1527.234985,1339.995850 1526.868042,1336.773804 1527.458252,1333.647217 
	C1523.525024,1333.647217 1520.265381,1333.647217 1516.614746,1333.410400 
z"/>
<path fill="#151515" opacity="1.000000" stroke="none" 
	d="
M953.969849,1337.551880 
	C949.150208,1347.268555 940.290039,1350.474121 931.098999,1345.897949 
	C926.938293,1343.826416 924.560730,1340.041626 924.265564,1335.421509 
	C923.927673,1330.132812 923.541138,1325.011353 927.969482,1320.431396 
	C932.179382,1316.077515 941.379395,1314.667725 947.507263,1318.221191 
	C953.402893,1321.640259 956.016907,1328.740967 954.085510,1335.661987 
	C953.955261,1336.128662 954.044922,1336.656860 953.969849,1337.551880 
M947.080261,1342.791504 
	C948.065735,1341.678223 949.282593,1340.695435 949.996399,1339.429077 
	C952.928467,1334.226562 952.968811,1328.837280 949.743652,1323.850342 
	C946.687561,1319.124756 941.887939,1318.104370 936.566956,1319.053711 
	C931.361328,1319.982422 928.256348,1323.334717 927.302917,1328.251709 
	C926.287292,1333.489258 926.883667,1338.755493 931.459473,1342.330444 
	C936.092163,1345.949951 941.245972,1345.975220 947.080261,1342.791504 
z"/>
<path fill="#151515" opacity="1.000000" stroke="none" 
	d="
M666.329834,1344.879150 
	C658.927368,1338.715332 659.484619,1324.390625 665.994812,1319.303345 
	C670.278931,1315.955566 678.580627,1314.991333 684.097046,1318.012329 
	C689.114685,1320.760132 692.865906,1328.110840 691.943848,1333.388794 
	C690.164978,1343.571655 682.637939,1349.374634 672.613525,1347.933228 
	C670.524536,1347.632935 668.613403,1346.095581 666.329834,1344.879150 
M664.034058,1330.723877 
	C664.178467,1339.107910 667.767273,1344.067749 674.283020,1344.887817 
	C681.884338,1345.844727 687.744324,1341.723999 688.841431,1334.650513 
	C690.070251,1326.727661 686.134033,1320.275269 679.317871,1319.039185 
	C671.135559,1317.555298 665.757812,1321.379639 664.034058,1330.723877 
z"/>
<path fill="#151515" opacity="1.000000" stroke="none" 
	d="
M342.713257,1319.170654 
	C349.174591,1324.228271 350.551025,1332.363159 346.943939,1339.840576 
	C344.236633,1345.452637 335.657959,1349.288818 329.206116,1348.024780 
	C323.670532,1346.940308 318.455200,1340.605713 318.220886,1334.781128 
	C318.038147,1330.239014 317.415985,1325.615601 320.757843,1321.791626 
	C326.489136,1315.233521 334.016571,1314.252930 342.713257,1319.170654 
M322.285919,1325.190796 
	C318.939331,1335.030029 322.789093,1343.672607 331.051422,1344.869141 
	C337.930511,1345.865479 343.126678,1342.904053 345.261993,1336.770508 
	C347.508820,1330.316650 345.141815,1323.150024 339.783875,1320.183960 
	C334.151489,1317.066284 327.104919,1318.851929 322.285919,1325.190796 
z"/>
<path fill="#151515" opacity="1.000000" stroke="none" 
	d="
M1449.041504,1322.068848 
	C1449.041260,1325.012451 1449.041260,1327.468750 1449.041260,1331.051025 
	C1455.014893,1331.051025 1460.583008,1331.051025 1466.151245,1331.051025 
	C1466.094238,1331.619873 1466.037231,1332.188599 1465.980225,1332.757446 
	C1460.500977,1332.757446 1455.021606,1332.757446 1449.295166,1332.757446 
	C1449.295166,1336.880127 1449.295166,1340.430054 1449.295166,1344.510254 
	C1455.366333,1344.510254 1461.226562,1344.510254 1467.386597,1344.510254 
	C1465.563721,1347.338257 1457.752075,1347.941528 1446.160156,1346.614258 
	C1446.160156,1336.576294 1446.160156,1326.513916 1446.160156,1316.204834 
	C1453.150879,1316.204834 1460.028198,1316.204834 1466.905640,1316.204834 
	C1467.049438,1316.548706 1467.193115,1316.892578 1467.336914,1317.236328 
	C1466.451416,1317.726562 1465.580200,1318.606812 1464.677856,1318.639893 
	C1460.526001,1318.793091 1456.362671,1318.801758 1452.209106,1318.674072 
	C1450.027100,1318.607056 1448.571411,1318.941650 1449.041504,1322.068848 
z"/>
<path fill="#151515" opacity="1.000000" stroke="none" 
	d="
M556.390991,1319.015381 
	C552.783997,1319.562012 550.373779,1321.378662 551.260620,1324.601318 
	C551.746338,1326.366089 554.208496,1327.942627 556.133667,1328.863892 
	C558.435547,1329.965454 561.086060,1330.447388 563.638855,1330.891357 
	C567.929749,1331.637573 570.727051,1334.026001 570.915344,1338.315918 
	C571.108337,1342.715210 567.923279,1344.960571 564.141235,1346.386963 
	C559.334534,1348.200195 551.059998,1346.536987 548.517944,1343.037109 
	C547.883484,1342.163696 547.975403,1340.762695 548.322266,1339.380981 
	C552.578125,1343.919678 557.448486,1345.435669 562.851990,1343.601807 
	C564.798340,1342.941162 567.070801,1340.529785 567.359741,1338.637207 
	C567.557007,1337.345337 564.839783,1334.969604 562.957031,1334.134277 
	C559.286926,1332.505981 555.229858,1331.776367 551.442017,1330.378784 
	C547.743225,1329.014404 547.210083,1325.709839 548.325623,1322.615479 
	C549.084839,1320.509644 550.858398,1317.970337 552.789124,1317.240723 
	C557.869019,1315.320801 563.161865,1315.259399 567.767456,1319.011841 
	C568.234253,1319.392212 568.630676,1319.893677 568.946777,1320.408447 
	C569.094299,1320.648804 568.971985,1321.054932 568.971985,1321.554321 
	C564.912354,1320.698730 560.863770,1319.845581 556.390991,1319.015381 
z"/>
<path fill="#151515" opacity="1.000000" stroke="none" 
	d="
M1174.058594,1319.104004 
	C1174.588013,1320.009155 1174.744019,1320.777832 1174.900024,1321.546509 
	C1173.852417,1321.452148 1172.782349,1321.463013 1171.761475,1321.244141 
	C1168.535645,1320.552368 1165.271240,1319.056763 1162.135620,1319.305908 
	C1160.324829,1319.449707 1157.835571,1322.141479 1157.370728,1324.095459 
	C1157.078979,1325.321777 1159.680908,1327.915161 1161.513916,1328.804932 
	C1164.082031,1330.051392 1167.132080,1330.333374 1169.995361,1330.936401 
	C1174.230225,1331.828369 1176.916626,1334.339722 1176.931885,1338.675659 
	C1176.947510,1343.130371 1173.454834,1345.196655 1169.863770,1346.597778 
	C1165.389771,1348.343628 1156.920532,1346.377808 1154.551880,1343.155029 
	C1153.889526,1342.254028 1153.947388,1340.823730 1154.281372,1339.308716 
	C1158.152710,1343.582642 1162.696045,1345.353760 1167.772583,1343.833130 
	C1170.024292,1343.158569 1171.687622,1340.520142 1173.618042,1338.773193 
	C1171.955078,1337.169922 1170.552856,1335.001831 1168.571899,1334.087891 
	C1165.076660,1332.475220 1161.177490,1331.765381 1157.541748,1330.422241 
	C1153.553345,1328.948730 1153.207031,1325.433472 1154.393677,1322.233032 
	C1155.150635,1320.191406 1157.175293,1317.941284 1159.167969,1317.169922 
	C1164.124146,1315.251587 1169.218018,1315.389160 1174.058594,1319.104004 
z"/>
<path fill="#151515" opacity="1.000000" stroke="none" 
	d="
M1345.673096,1319.265625 
	C1349.817139,1328.593018 1353.711670,1337.621704 1357.606201,1346.650391 
	C1357.333130,1346.922729 1357.059937,1347.194946 1356.786743,1347.467163 
	C1355.779785,1346.606567 1354.316040,1345.941650 1353.848511,1344.849976 
	C1352.234131,1341.080200 1349.747437,1339.364624 1345.571167,1339.991333 
	C1343.622314,1340.283691 1341.578613,1340.195068 1339.603516,1340.008911 
	C1335.612915,1339.632812 1332.462769,1340.180786 1331.730835,1345.042236 
	C1331.618530,1345.788574 1329.871582,1346.288818 1328.880737,1346.902954 
	C1328.889648,1345.770874 1328.558350,1344.497437 1328.960815,1343.528931 
	C1332.370117,1335.324829 1335.836426,1327.141357 1339.495483,1319.046631 
	C1340.068970,1317.777832 1341.701050,1316.987671 1342.843506,1315.976196 
	C1343.703613,1316.973145 1344.563599,1317.969971 1345.673096,1319.265625 
M1348.145874,1331.489624 
	C1346.550903,1327.745850 1344.956055,1324.001953 1342.951172,1319.295898 
	C1340.260376,1325.714722 1337.956909,1331.209717 1335.491943,1337.090088 
	C1340.701416,1337.090088 1345.267944,1337.090088 1350.253906,1337.090088 
	C1349.596313,1335.241821 1349.055786,1333.722412 1348.145874,1331.489624 
z"/>
<path fill="#080505" opacity="1.000000" stroke="none" 
	d="
M990.988708,1331.903809 
	C990.989014,1327.088379 990.910217,1322.754517 991.059082,1318.428345 
	C991.087524,1317.603271 992.014954,1316.809082 992.527588,1316.000732 
	C993.021912,1316.827515 993.921387,1317.643433 993.944092,1318.483032 
	C994.079041,1323.476929 994.010681,1328.476440 994.011353,1333.473999 
	C994.012329,1340.668457 996.728699,1344.146851 1002.476501,1344.315186 
	C1007.701904,1344.468018 1011.684570,1340.054199 1011.950317,1333.450439 
	C1012.144348,1328.627075 1011.905212,1323.787354 1012.057068,1318.961060 
	C1012.088623,1317.959595 1012.992493,1316.985718 1013.494446,1315.999268 
	C1014.000061,1316.982178 1014.960388,1317.975586 1014.937561,1318.946167 
	C1014.786194,1325.393066 1015.077820,1331.951294 1013.958130,1338.247925 
	C1012.684387,1345.410645 1008.203735,1347.605835 999.804260,1346.705322 
	C994.610779,1346.148560 991.511108,1342.320679 991.072937,1335.882080 
	C990.993896,1334.720947 991.014221,1333.552856 990.988708,1331.903809 
z"/>
<path fill="#080505" opacity="1.000000" stroke="none" 
	d="
M392.214722,1343.148438 
	C400.488190,1345.623901 405.677795,1341.743042 405.959198,1333.114502 
	C406.121643,1328.134155 405.937653,1323.143188 406.048248,1318.160034 
	C406.064301,1317.435425 406.855682,1316.728149 407.288239,1316.012817 
	C407.860809,1316.586670 408.944733,1317.175537 408.928406,1317.732056 
	C408.720306,1324.823608 408.968414,1332.009277 407.848022,1338.969360 
	C406.822235,1345.341553 401.574463,1347.691772 393.617859,1346.738159 
	C388.859192,1346.167847 385.454895,1342.303101 385.227081,1336.718262 
	C384.983582,1330.747070 384.981903,1324.762085 385.064819,1318.785767 
	C385.077728,1317.853149 386.102051,1316.934448 386.658691,1316.009399 
	C387.109558,1317.040527 387.924133,1318.062500 387.950104,1319.104126 
	C388.082581,1324.418701 387.594849,1329.785034 388.181244,1335.037476 
	C388.489563,1337.798950 390.551941,1340.364746 392.214722,1343.148438 
z"/>
<path fill="#151515" opacity="1.000000" stroke="none" 
	d="
M1587.815430,1318.716431 
	C1586.296875,1321.113892 1585.251587,1323.416016 1583.701660,1325.303955 
	C1579.333740,1330.624268 1576.909424,1336.413330 1577.953491,1343.455200 
	C1578.116699,1344.555054 1577.114746,1345.827759 1576.651367,1347.020508 
	C1576.087158,1345.928223 1574.886230,1344.722900 1575.057007,1343.761108 
	C1576.827148,1333.786499 1569.443848,1327.564087 1565.509766,1319.945190 
	C1564.852905,1318.672852 1564.000244,1317.501465 1562.457397,1315.035645 
	C1570.788940,1318.333008 1571.613892,1326.470337 1576.370117,1330.762573 
	C1579.284302,1326.363647 1582.112427,1321.875977 1585.219971,1317.591187 
	C1585.831543,1316.747803 1587.521729,1316.686768 1588.714478,1316.264893 
	C1588.495728,1316.987183 1588.276978,1317.709595 1587.815430,1318.716431 
z"/>
<path fill="#151515" opacity="1.000000" stroke="none" 
	d="
M279.232727,1327.338867 
	C274.671600,1332.298340 274.764343,1338.015381 274.952179,1343.834351 
	C274.985779,1344.875122 273.855774,1345.953491 273.263000,1347.014526 
	C272.828247,1345.961060 271.864746,1344.808838 272.040070,1343.869141 
	C273.902191,1333.892090 266.475037,1327.663086 262.585144,1320.023438 
	C261.930084,1318.736938 261.040680,1317.569702 259.573364,1315.273560 
	C268.188812,1317.965210 268.319214,1326.671143 273.280487,1330.688599 
	C277.914368,1326.310547 278.629974,1318.648926 284.897156,1315.609375 
	C285.321259,1315.919800 285.745361,1316.230347 286.169464,1316.540771 
	C283.924011,1320.035400 281.678528,1323.530029 279.232727,1327.338867 
z"/>
<path fill="#151515" opacity="1.000000" stroke="none" 
	d="
M792.645630,1322.336426 
	C794.607239,1325.407471 796.343445,1328.186523 797.981750,1330.808838 
	C803.120300,1326.532104 803.329712,1318.282227 811.096924,1316.574829 
	C809.648315,1318.943970 808.410706,1321.478149 806.710938,1323.650757 
	C801.896484,1329.804199 798.606812,1336.339478 799.960754,1344.493042 
	C800.085022,1345.241089 799.089050,1346.175415 798.613281,1347.023193 
	C798.062866,1346.416870 796.954468,1345.708984 797.043701,1345.219238 
	C799.261475,1333.050171 789.779358,1325.663940 785.316284,1316.154785 
	C790.329773,1314.927856 790.338806,1319.757568 792.645630,1322.336426 
z"/>
<path fill="#151515" opacity="1.000000" stroke="none" 
	d="
M1396.958740,1329.020020 
	C1396.958740,1325.388550 1396.958740,1322.252808 1396.958740,1318.658691 
	C1393.192871,1318.658691 1389.794800,1318.658691 1386.172119,1318.658691 
	C1387.671509,1315.709595 1399.966675,1314.811035 1411.289551,1316.563477 
	C1407.928345,1320.290649 1403.821777,1317.768066 1400.041260,1319.210083 
	C1400.041260,1326.956177 1400.112427,1335.067139 1399.968750,1343.174316 
	C1399.945801,1344.466553 1398.958496,1345.741455 1398.417114,1347.024414 
	C1397.931030,1345.686035 1397.078979,1344.362183 1397.025513,1343.006714 
	C1396.848145,1338.515991 1396.958740,1334.013672 1396.958740,1329.020020 
z"/>
<path fill="#151515" opacity="1.000000" stroke="none" 
	d="
M1220.982910,1345.702881 
	C1220.961914,1336.582031 1220.961914,1327.936768 1220.961914,1318.810791 
	C1217.313354,1318.810791 1213.910645,1318.810791 1210.507935,1318.810791 
	C1210.345947,1318.407593 1210.183960,1318.004395 1210.021973,1317.601074 
	C1210.819214,1317.055176 1211.608765,1316.048828 1212.414917,1316.035278 
	C1219.725342,1315.912598 1227.038696,1315.963379 1234.511963,1316.715820 
	C1231.832764,1320.097290 1227.617554,1317.774048 1224.041138,1319.167969 
	C1224.041138,1327.391724 1224.039429,1335.696411 1224.042358,1344.001221 
	C1224.043213,1346.151611 1224.095581,1348.353027 1220.982910,1345.702881 
z"/>
<path fill="#151515" opacity="1.000000" stroke="none" 
	d="
M614.958618,1330.013672 
	C614.958618,1326.047363 614.958618,1322.578735 614.958618,1318.651611 
	C611.187195,1318.651611 607.785767,1318.651611 604.169067,1318.651611 
	C605.658325,1315.750000 618.236572,1314.837646 629.240295,1316.563110 
	C626.000793,1320.603638 621.728333,1317.401367 618.041321,1319.510498 
	C618.041321,1326.958374 618.112488,1335.070557 617.968445,1343.178955 
	C617.945496,1344.469604 616.955505,1345.742920 616.412476,1347.024170 
	C615.927856,1345.684448 615.085449,1344.360596 615.025391,1343.002075 
	C614.841736,1338.845581 614.958679,1334.675903 614.958618,1330.013672 
z"/>
<path fill="#D4D4D4" opacity="1.000000" stroke="none" 
	d="
M742.236572,576.717346 
	C741.229431,575.954529 740.482971,574.987732 739.404907,573.993408 
	C739.619629,573.364624 740.165955,572.763245 740.712280,572.161926 
	C741.307251,573.612427 741.902222,575.062866 742.236572,576.717346 
z"/>
<path fill="#D4D4D4" opacity="1.000000" stroke="none" 
	d="
M761.918579,594.316833 
	C760.857971,594.506042 759.813782,594.427307 758.432495,594.152100 
	C759.375305,593.986694 760.655090,594.017822 761.918579,594.316833 
z"/>
<path fill="#D4D4D4" opacity="1.000000" stroke="none" 
	d="
M747.899658,592.055054 
	C746.804260,592.108948 745.582581,591.885742 744.291626,591.346680 
	C745.406067,591.279907 746.589783,591.528931 747.899658,592.055054 
z"/>
<path fill="#D4D4D4" opacity="1.000000" stroke="none" 
	d="
M754.942627,593.308167 
	C754.171326,593.526672 753.348022,593.460999 752.308899,593.161621 
	C753.025574,592.959900 753.958069,592.991943 754.942627,593.308167 
z"/>
<path fill="#D4D4D4" opacity="1.000000" stroke="none" 
	d="
M743.363281,583.728760 
	C742.831848,583.130188 742.536377,582.368347 742.326660,581.303711 
	C742.807983,581.855713 743.203674,582.710571 743.363281,583.728760 
z"/>
<path fill="#D4D4D4" opacity="1.000000" stroke="none" 
	d="
M991.953491,1134.641113 
	C991.709045,1134.727539 991.392700,1134.619507 991.155823,1134.240845 
	C991.531860,1134.019043 991.747253,1134.177856 991.953491,1134.641113 
z"/>
<path fill="#D4D4D4" opacity="1.000000" stroke="none" 
	d="
M991.953491,1040.641113 
	C991.709045,1040.727417 991.392761,1040.619385 991.155823,1040.240845 
	C991.531860,1040.019043 991.747253,1040.177856 991.953491,1040.641113 
z"/>
<path fill="#D4D4D4" opacity="1.000000" stroke="none" 
	d="
M1506.928467,766.620239 
	C1506.704712,766.715698 1506.382324,766.629456 1506.104492,766.259644 
	C1506.409058,766.081665 1506.635986,766.235840 1506.928467,766.620239 
z"/>
<path fill="#FFFFFF" opacity="1.000000" stroke="none" 
	d="
M1232.093018,1002.760986 
	C1247.746826,1002.760681 1262.908936,1002.900513 1278.067139,1002.716858 
	C1290.331909,1002.568359 1299.533936,1007.361389 1304.117920,1018.940125 
	C1309.082764,1031.480591 1308.723999,1043.780029 1299.546631,1054.554077 
	C1295.246216,1059.602661 1289.251343,1061.880127 1282.663818,1061.924072 
	C1265.010254,1062.041992 1247.355347,1061.964355 1229.406494,1061.964355 
	C1229.269897,1061.022827 1229.019653,1060.097900 1229.018433,1059.172729 
	C1228.994995,1041.679932 1228.985229,1024.187256 1229.025391,1006.694519 
	C1229.029419,1004.933777 1228.069580,1002.312561 1232.093018,1002.760986 
z"/>
<path fill="#FFFFFF" opacity="1.000000" stroke="none" 
	d="
M582.039246,1008.243042 
	C583.477051,1007.514954 584.880615,1007.057922 586.285828,1007.053223 
	C601.444275,1007.002075 616.603149,1006.965027 631.761475,1007.037659 
	C649.339783,1007.121948 661.002258,1019.510254 660.996948,1037.953369 
	C660.991699,1056.008301 649.715332,1067.839722 632.179932,1067.964966 
	C616.355835,1068.078003 600.530334,1067.995361 584.705444,1067.999023 
	C584.042114,1067.999146 583.378723,1067.999023 582.005737,1067.999023 
	C582.005737,1048.194092 582.005737,1028.459106 582.039246,1008.243042 
z"/>
<path fill="#FAFAFA" opacity="1.000000" stroke="none" 
	d="
M1250.505371,710.424316 
	C1258.593018,690.551270 1266.487915,671.010132 1274.814819,650.399841 
	C1285.278687,676.489319 1295.412964,701.757080 1305.728882,727.477661 
	C1284.822876,727.477661 1264.590210,727.477661 1243.724365,727.477661 
	C1245.979126,721.754883 1248.145752,716.255554 1250.505371,710.424316 
z"/>
<path fill="#FBF6F6" opacity="1.000000" stroke="none" 
	d="
M593.070923,796.018799 
	C642.024536,815.064270 694.042603,792.430176 714.497070,748.451721 
	C730.791504,713.417664 726.534973,679.955566 703.803040,648.790161 
	C703.419800,648.264648 703.061890,647.720520 702.692017,647.184937 
	C706.949707,643.130371 711.119446,639.159607 715.283203,635.194580 
	C745.854980,666.647827 755.469360,732.365784 715.554260,780.321777 
	C674.871521,829.200012 599.798706,833.806641 553.723328,792.761047 
	C505.376373,749.691895 501.464752,677.967346 544.896423,630.713623 
	C590.181274,581.443542 661.085510,584.905823 700.946960,620.449768 
	C696.876221,624.446106 692.783020,628.464539 688.671021,632.501343 
	C682.267944,628.791260 675.413757,624.051758 667.957031,620.622620 
	C615.982605,596.720947 554.946838,623.945557 537.731079,678.483948 
	C522.555176,726.560242 545.487671,775.501282 593.070923,796.018799 
z"/>
<path fill="#FBF6F6" opacity="1.000000" stroke="none" 
	d="
M613.444214,780.711365 
	C583.778564,773.254089 564.460205,755.288879 556.158447,726.217529 
	C545.142517,687.641052 570.001099,644.971252 608.932190,635.155823 
	C630.941223,629.606812 651.534180,632.921265 670.501282,645.569336 
	C671.706299,646.372986 672.814880,647.321228 673.719116,648.011841 
	C669.339478,652.325867 665.225525,656.378174 661.024414,660.516357 
	C628.804749,640.029053 596.265198,654.396240 582.073730,674.775024 
	C565.793396,698.153381 569.180298,729.513184 590.261902,749.223083 
	C609.935059,767.616089 641.989502,768.923279 662.922607,752.500427 
	C685.163330,735.051575 693.445740,702.858276 674.913757,674.484436 
	C679.139282,670.669983 683.415771,666.809509 688.041748,662.633545 
	C692.566162,667.226074 695.703430,673.725891 698.203918,680.507690 
	C717.197021,732.021606 679.106201,784.341858 624.258606,782.093262 
	C620.781067,781.950684 617.327148,781.231079 613.444214,780.711365 
z"/>
<path fill="#FBF6F6" opacity="1.000000" stroke="none" 
	d="
M647.589905,702.305786 
	C650.957581,698.482300 654.325256,694.658813 657.689453,690.839294 
	C665.154175,697.491760 665.530396,717.794739 654.936890,729.901978 
	C642.784302,743.791077 621.797302,746.100769 607.268372,734.790039 
	C592.375671,723.196106 589.391113,702.663086 600.342346,687.140991 
	C610.328003,672.987549 630.982544,668.291992 645.354492,677.610413 
	C641.558960,681.169067 637.899109,684.600464 633.531372,687.948853 
	C625.325256,686.039612 618.956360,688.256836 613.778442,693.683716 
	C608.170410,699.561340 607.409729,706.810364 609.713013,714.165466 
	C612.838745,724.146851 623.670715,729.616821 633.760681,726.875488 
	C644.479858,723.963074 650.214172,713.775208 647.589905,702.305786 
z"/>
<path fill="#DC0C18" opacity="1.000000" stroke="none" 
	d="
M647.242676,702.396179 
	C650.214172,713.775208 644.479858,723.963074 633.760681,726.875488 
	C623.670715,729.616821 612.838745,724.146851 609.713013,714.165466 
	C607.409729,706.810364 608.170410,699.561340 613.778442,693.683716 
	C618.956360,688.256836 625.325256,686.039612 633.229370,688.055603 
	C630.373901,691.745239 627.121826,695.253723 623.849182,698.742981 
	C619.183411,703.717468 618.773682,709.392639 622.818909,713.291199 
	C626.893494,717.218018 632.010925,716.875732 636.940796,712.225525 
	C640.317139,709.040771 643.581177,705.737122 647.242676,702.396179 
z"/>
<path fill="#FAFAFA" opacity="1.000000" stroke="none" 
	d="
M748.884216,1327.591064 
	C747.732300,1331.828979 745.005188,1333.117798 741.237061,1332.990234 
	C738.076599,1332.883179 734.909668,1332.968262 731.388611,1332.968262 
	C731.388611,1328.354614 731.388611,1323.802124 731.388611,1319.233521 
	C744.613098,1317.081299 748.684204,1318.921631 748.884216,1327.591064 
z"/>
<path fill="#FAFAFA" opacity="1.000000" stroke="none" 
	d="
M1276.050415,1318.695068 
	C1279.029297,1318.698975 1281.531250,1318.561646 1284.010864,1318.738647 
	C1288.744751,1319.076904 1291.022339,1321.564575 1290.965942,1326.059448 
	C1290.909546,1330.562012 1288.579956,1332.827148 1283.708984,1332.951172 
	C1280.390137,1333.035522 1277.067505,1332.967285 1273.055542,1332.967285 
	C1273.055542,1328.676514 1272.966064,1324.435181 1273.166504,1320.207642 
	C1273.192139,1319.666992 1274.727539,1319.197998 1276.050415,1318.695068 
z"/>
<path fill="#FAFAFA" opacity="1.000000" stroke="none" 
	d="
M456.916077,1332.968628 
	C454.479675,1332.968628 452.511169,1332.968628 450.291748,1332.968628 
	C450.291748,1328.144287 450.291748,1323.591797 450.291748,1318.705688 
	C453.925781,1318.705688 457.387177,1318.553955 460.830048,1318.741943 
	C465.820496,1319.014160 468.170624,1321.655029 467.965210,1326.384888 
	C467.774323,1330.780029 465.438721,1332.811279 460.376129,1332.963745 
	C459.379578,1332.993774 458.381348,1332.968384 456.916077,1332.968628 
z"/>
<path fill="#FAFAFA" opacity="1.000000" stroke="none" 
	d="
M1056.031616,1329.825073 
	C1056.031372,1325.891602 1056.031372,1322.440674 1056.031372,1318.826782 
	C1060.285522,1318.826782 1064.090576,1318.590820 1067.853394,1318.887939 
	C1072.293701,1319.238770 1074.151245,1322.126465 1073.954590,1326.416260 
	C1073.762939,1330.592407 1071.519897,1332.816162 1067.346680,1332.941528 
	C1064.358521,1333.031372 1061.344604,1333.160400 1058.387939,1332.844360 
	C1057.522095,1332.751831 1056.812866,1331.193970 1056.031616,1329.825073 
z"/>
<path fill="#FAFAFA" opacity="1.000000" stroke="none" 
	d="
M946.740356,1342.978516 
	C941.245972,1345.975220 936.092163,1345.949951 931.459473,1342.330444 
	C926.883667,1338.755493 926.287292,1333.489258 927.302917,1328.251709 
	C928.256348,1323.334717 931.361328,1319.982422 936.566956,1319.053711 
	C941.887939,1318.104370 946.687561,1319.124756 949.743652,1323.850342 
	C952.968811,1328.837280 952.928467,1334.226562 949.996399,1339.429077 
	C949.282593,1340.695435 948.065735,1341.678223 946.740356,1342.978516 
z"/>
<path fill="#FAFAFA" opacity="1.000000" stroke="none" 
	d="
M664.048706,1330.305786 
	C665.757812,1321.379639 671.135559,1317.555298 679.317871,1319.039185 
	C686.134033,1320.275269 690.070251,1326.727661 688.841431,1334.650513 
	C687.744324,1341.723999 681.884338,1345.844727 674.283020,1344.887817 
	C667.767273,1344.067749 664.178467,1339.107910 664.048706,1330.305786 
z"/>
<path fill="#FAFAFA" opacity="1.000000" stroke="none" 
	d="
M322.486694,1324.853516 
	C327.104919,1318.851929 334.151489,1317.066284 339.783875,1320.183960 
	C345.141815,1323.150024 347.508820,1330.316650 345.261993,1336.770508 
	C343.126678,1342.904053 337.930511,1345.865479 331.051422,1344.869141 
	C322.789093,1343.672607 318.939331,1335.030029 322.486694,1324.853516 
z"/>
<path fill="#FBF6F6" opacity="1.000000" stroke="none" 
	d="
M1348.330566,1331.846436 
	C1349.055786,1333.722412 1349.596313,1335.241821 1350.253906,1337.090088 
	C1345.267944,1337.090088 1340.701416,1337.090088 1335.491943,1337.090088 
	C1337.956909,1331.209717 1340.260376,1325.714722 1342.951172,1319.295898 
	C1344.956055,1324.001953 1346.550903,1327.745850 1348.330566,1331.846436 
z"/>
</svg>